<?xml version="1.0" encoding="utf-8"?>
<!-- Generator: Adobe Illustrator 16.0.2, SVG Export Plug-In . SVG Version: 6.00 Build 0)  -->
<!DOCTYPE svg PUBLIC "-//W3C//DTD SVG 1.1//EN" "http://www.w3.org/Graphics/SVG/1.1/DTD/svg11.dtd">
<svg version="1.1" id="Layer_1" xmlns="http://www.w3.org/2000/svg" xmlns:xlink="http://www.w3.org/1999/xlink" x="0px" y="0px"
	 width="33.108px" height="44.077px" viewBox="0 0 33.108 44.077" enable-background="new 0 0 33.108 44.077" xml:space="preserve">
<g display="none">
	<g display="inline">
		<g>
			<g>
				<g>
					<path fill="none" stroke="#734C33" stroke-width="2" stroke-miterlimit="10" d="M31.567,33.499"/>
				</g>
				<g>
					<path fill="none" stroke="#734C33" stroke-width="2" stroke-miterlimit="10" d="M31,35V12.15L22.417,3H5.948
						C4.606,3,3,4.098,3,5.439v32.939C3,39.378,4.238,41,5.238,41h23.89C30.469,41,31,39.72,31,38.378V35"/>
				</g>
			</g>
		</g>
	</g>
	<g display="inline">
		<text transform="matrix(1 0 0 1 5.7563 26.8115)" fill="#734C33" font-family="'Geometria-Bold'" font-size="10.8999">PDF</text>
	</g>
</g>
<g>
	<g>
		<g>
			<g>
				<path fill="none" stroke="#734C33" stroke-width="2" stroke-miterlimit="10" d="M31.567,33.499"/>
			</g>
			<g>
				<path fill="none" stroke="#734C33" stroke-width="2" stroke-miterlimit="10" d="M31,35V12.149L22.418,3H5.948
					C4.606,3,3,4.098,3,5.439v32.938C3,39.378,4.238,41,5.238,41h23.889C30.469,41,31,39.72,31,38.378V35"/>
			</g>
		</g>
	</g>
	<g>
		<g>
			<path fill="none" stroke="#734C33" stroke-width="2" stroke-miterlimit="10" d="M22.334,21.097l2.205-2.205
				c1.578-1.576,1.578-4.133,0-5.71c-1.576-1.577-4.133-1.577-5.709,0l-5.472,5.471c-1.577,1.577-1.577,4.133,0,5.71
				c1.576,1.577,4.133,1.577,5.71,0"/>
		</g>
	</g>
	<g>
		<g>
			<path fill="none" stroke="#734C33" stroke-width="2" stroke-miterlimit="10" d="M11.625,25.448L9.42,27.653
				c-1.576,1.576-1.576,4.133,0,5.71c1.577,1.577,4.134,1.577,5.71,0l5.472-5.471c1.576-1.577,1.577-4.133,0-5.71
				c-1.576-1.577-4.133-1.577-5.709,0"/>
		</g>
	</g>
</g>
<g display="none">
	<g display="inline">
		<g>
			<g>
				<path fill="none" stroke="#734C33" stroke-width="2" stroke-miterlimit="10" d="M277.33,30.499"/>
			</g>
			<g>
				<path fill="none" stroke="#734C33" stroke-width="2" stroke-miterlimit="10" d="M249,30V2.439C249,1.098,250.369,0,251.711,0
					h16.469L277,9.15V22"/>
			</g>
			<g>
				<path fill="none" stroke="#734C33" stroke-width="2" stroke-miterlimit="10" d="M277,32v3.378c0,1.342-0.769,2.622-2.11,2.622
					H255"/>
			</g>
			<g>
				<path fill="none" stroke="#734C33" stroke-width="2" stroke-miterlimit="10" d="M262.689,3.05
					c-3.049,0-1.829,12.199,2.44,17.689c3.745,4.815,18.3,12.2,18.3,6.71c0-3.66-13.479-2.624-21.35,0
					c-5.49,1.83-16.469,7.319-14.639,10.979c1.829,3.66,10.979-8.539,14.029-15.859C264.52,15.249,266.96,3.05,262.689,3.05z"/>
			</g>
		</g>
	</g>
</g>
<g display="none">
	<g display="inline">
		<g>
			<g>
				<path fill="none" stroke="#734C33" stroke-width="2" stroke-miterlimit="10" d="M209.567,116.499"/>
			</g>
			<g>
				<path fill="none" stroke="#734C33" stroke-width="2" stroke-miterlimit="10" d="M209,118V95.149L200.418,86h-16.47
					c-1.342,0-2.948,1.098-2.948,2.439v32.938c0,1,1.238,2.622,2.238,2.622h23.889c1.342,0,1.873-1.28,1.873-2.622V118"/>
			</g>
		</g>
	</g>
	<polyline display="inline" fill="none" stroke="#734C33" stroke-width="2" stroke-miterlimit="10" points="198,100 203,100 
		203,116 187,116 187,100 192,100 	"/>
	<polyline display="inline" fill="none" stroke="#734C33" stroke-width="2" stroke-miterlimit="10" points="191,96 195,92 199,96 	
		"/>
	<path display="inline" fill="none" stroke="#734C33" stroke-width="2" stroke-miterlimit="10" d="M198,100"/>
	<path display="inline" fill="none" stroke="#734C33" stroke-width="2" stroke-miterlimit="10" d="M192,100"/>
	
		<line display="inline" fill="none" stroke="#734C33" stroke-width="2" stroke-miterlimit="10" x1="195" y1="93" x2="195" y2="110"/>
</g>
</svg>
