<?xml version="1.0" encoding="utf-8"?>
<!-- Generator: Adobe Illustrator 16.0.2, SVG Export Plug-In . SVG Version: 6.00 Build 0)  -->
<!DOCTYPE svg PUBLIC "-//W3C//DTD SVG 1.1//EN" "http://www.w3.org/Graphics/SVG/1.1/DTD/svg11.dtd">
<svg version="1.1" id="Layer_1" xmlns="http://www.w3.org/2000/svg" xmlns:xlink="http://www.w3.org/1999/xlink" x="0px" y="0px"
	 width="204px" height="256px" viewBox="26 0 204 256" enable-background="new 26 0 204 256" xml:space="preserve">
<g>
	<g>
		<path fill="#234A5C" d="M162.633,17.033L213,66.8V230.4c0,5.183-3.018,8.6-8.2,8.6H51.2c-5.6,0-8.2-4.357-8.2-8.6V25.6
			c0-4.784,3.417-8.6,8.2-8.6H162 M170.667,0H51.2C37.05,0,26,11.292,26,25.6v204.8c0,13.85,10.267,25.6,25.2,25.6h153.6
			c14.55,0,25.2-11,25.2-25.6V59.733L170.467,0H170.667z"/>
	</g>
	<g>
		<path fill="#234A5C" d="M58.228,158.805v-47.787h19.047c7.782,0,14.131,2.253,19.046,6.689c4.916,4.438,7.373,10.172,7.373,17.204
			c0,7.03-2.457,12.834-7.373,17.271c-4.915,4.438-11.264,6.622-19.046,6.622L58.228,158.805L58.228,158.805z M70.516,148.02h5.871
			c9.284,0,14.609-4.711,14.609-13.107c0-8.397-5.325-13.107-14.609-13.107h-5.871V148.02z"/>
		<path fill="#234A5C" d="M131.613,159.761c-7.235,0-13.243-2.39-18.021-7.235c-4.779-4.849-7.168-10.719-7.168-17.613
			c0-6.896,2.389-12.767,7.168-17.613c4.778-4.847,10.786-7.236,18.021-7.236c7.236,0,13.244,2.39,18.023,7.236
			c4.778,4.847,7.168,10.718,7.168,17.613c0,6.895-2.39,12.766-7.168,17.613C144.857,157.371,138.852,159.761,131.613,159.761z
			 M131.613,148.428c3.619,0,6.555-1.297,8.943-3.822c2.391-2.525,3.618-5.804,3.618-9.693c0-3.893-1.229-7.168-3.618-9.694
			c-2.39-2.525-5.324-3.823-8.943-3.823c-3.617,0-6.621,1.298-9.01,3.823c-2.39,2.526-3.551,5.804-3.551,9.694
			s1.161,7.168,3.551,9.693C124.992,147.131,127.996,148.428,131.613,148.428z"/>
		<path fill="#234A5C" d="M167.111,152.797c-5.053-4.642-7.577-10.581-7.577-17.886c0-7.305,2.524-13.244,7.509-17.887
			c5.053-4.642,11.4-6.963,19.047-6.963c4.506,0,8.602,0.888,12.355,2.73v12.084c-3.754-2.321-7.781-3.482-12.219-3.482
			c-4.027,0-7.373,1.298-10.035,3.823c-2.662,2.526-4.028,5.804-4.028,9.694c0,3.959,1.366,7.236,4.097,9.762
			c2.799,2.526,6.28,3.755,10.444,3.755c5.053,0,9.217-1.297,12.562-3.821v12.15c-3.891,1.979-8.26,3.004-13.106,3.004
			C178.514,159.761,172.163,157.439,167.111,152.797z"/>
	</g>
</g>
</svg>
