<?xml version="1.0" encoding="utf-8"?>
<!-- Generator: Adobe Illustrator 16.0.2, SVG Export Plug-In . SVG Version: 6.00 Build 0)  -->
<!DOCTYPE svg PUBLIC "-//W3C//DTD SVG 1.1//EN" "http://www.w3.org/Graphics/SVG/1.1/DTD/svg11.dtd">
<svg version="1.1" id="Layer_1" xmlns="http://www.w3.org/2000/svg" xmlns:xlink="http://www.w3.org/1999/xlink" x="0px" y="0px"
	 width="192px" height="256px" viewBox="31 0 192 256" enable-background="new 31 0 192 256" xml:space="preserve">
<g>
	<g>
		<g>
			<g>
				<g>
					<path fill="none" stroke="#734C33" stroke-width="2" stroke-miterlimit="10" d="M220.23,201.588"/>
				</g>
			</g>
			<g>
				<g>
					<path fill="#734C33" d="M203.75,256H51.722C37.107,256,31,243.691,31,234V24C31,8.376,39.922,0,54.875,0h109.568L223,62.425
						V235C223,249.081,214.919,256,203.75,256z M54.875,12.8C46.026,12.8,43.8,16.669,43.8,24v210c0,3.794,1.236,8.67,7.941,9.2
						H203.75c5.188,0,6.45-5.771,6.45-8.2V67.487L158.906,12.8H54.875z"/>
				</g>
			</g>
		</g>
	</g>
</g>
<g>
	<g>
		<g>
			<g>
				<path fill="#734C33" d="M120.738,157.094c-8.612,0-16.709-3.355-22.797-9.443c-12.565-12.568-12.565-33.021,0.003-45.593
					l35.019-35.012c6.088-6.091,14.182-9.444,22.794-9.444s16.706,3.353,22.794,9.444c6.094,6.087,9.449,14.188,9.449,22.8
					c0,8.612-3.355,16.709-9.449,22.797l-14.113,14.109l-9.049-9.05l14.111-14.113c3.676-3.672,5.7-8.553,5.7-13.744
					c0-5.194-2.024-10.075-5.7-13.747c-7.337-7.35-20.148-7.347-27.486-0.003l-35.02,35.013c-7.578,7.581-7.578,19.913,0,27.493
					c7.344,7.352,20.144,7.352,27.494,0l9.05,9.051C137.45,153.744,129.352,157.094,120.738,157.094z"/>
			</g>
		</g>
	</g>
	<g>
		<g>
			<g>
				<path fill="#734C33" d="M95.538,214.693c-8.613,0-16.709-3.351-22.797-9.443c-6.091-6.088-9.444-14.188-9.444-22.8
					s3.353-16.706,9.444-22.794l14.106-14.112l9.05,9.05l-14.106,14.112c-3.672,3.669-5.694,8.55-5.694,13.744
					c0,5.192,2.022,10.075,5.694,13.75c7.337,7.344,20.147,7.35,27.487,0l35.022-35.013c7.574-7.582,7.574-19.92,0-27.494
					c-7.338-7.351-20.15-7.351-27.488,0l-9.053-9.05c6.091-6.094,14.185-9.443,22.798-9.443c8.611,0,16.705,3.356,22.793,9.443
					c12.568,12.569,12.568,33.019,0,45.593l-35.019,35.014C112.247,211.338,104.15,214.693,95.538,214.693z"/>
			</g>
		</g>
	</g>
</g>
</svg>
