<svg xmlns="http://www.w3.org/2000/svg" width="26.417" height="42.625" viewBox="0 0 26.417 42.625"><path fill-rule="evenodd" clip-rule="evenodd" fill="#fff" d="M16.575 11.649l9.002-8.13c-6.683-2.958-13.085-3.519-19.718-3.519l-3.403 7.978c4.05 0 8.323.344 12.014 1.362l-8.341 7.533c3.297.754 5.479 1.655 8.389 3.239l-14.518 12.322c3.441 3.695 9.545 8.806 15.343 10.19l11.074-9.99v-16.006c-3.087-2.426-6.604-4.017-9.842-4.979zm-10.27-9.24l.448-1.051c5.128.041 10.602.458 16.315 2.599l-1.127 1.018c-5.462-2.034-10.706-2.497-15.636-2.566zm11.282 34.392l-1.438-.423c-3.25-.956-6.43-2.834-8.501-5.027l-.032-.033 1.081-1.017.005.007c2.073 2.192 5.25 4.071 8.502 5.028l.383.112v1.353zm0-2.765c-3.089-.909-6.062-2.715-7.9-4.659l7.9-7.444v12.103zm7.475-2.004l-1.274 1.139v-14.987c-2.481-1.799-5.452-3.242-8.654-4.192l-.867-.257 1.134-1.02.788.233c3.294.98 6.348 2.479 8.873 4.352v14.732z"/></svg>