<svg xmlns="http://www.w3.org/2000/svg" width="40.349" height="65.105" viewBox="0 0 40.349 65.105"><path fill-rule="evenodd" clip-rule="evenodd" fill="#fff" d="M25.317 17.791l13.75-12.417c-10.21-4.519-19.987-5.374-30.117-5.374l-5.2 12.186c6.188 0 12.712.525 18.351 2.079l-12.741 11.505c5.037 1.154 8.367 2.529 12.813 4.948l-22.173 18.822c5.255 5.645 14.579 13.452 23.435 15.565l16.915-15.259v-24.447c-4.715-3.707-10.087-6.137-15.033-7.608zm-15.687-14.113l.684-1.604c7.832.061 16.195.699 24.921 3.97l-1.722 1.556c-8.342-3.108-16.352-3.816-23.883-3.922zm17.233 52.533l-2.195-.645c-4.966-1.461-9.821-4.33-12.986-7.68l-.049-.051 1.651-1.552.008.009c3.165 3.348 8.019 6.219 12.986 7.681l.585.17v2.068zm0-4.225c-4.718-1.388-9.26-4.147-12.065-7.116l12.065-11.372v18.488zm11.416-3.059l-1.944 1.739v-22.891c-3.79-2.75-8.329-4.953-13.219-6.405l-1.324-.393 1.732-1.558 1.203.357c5.033 1.495 9.697 3.784 13.552 6.646v22.505z"/></svg>