<?xml version="1.0" encoding="utf-8"?>
<!-- Generator: Adobe Illustrator 16.0.2, SVG Export Plug-In . SVG Version: 6.00 Build 0)  -->
<!DOCTYPE svg PUBLIC "-//W3C//DTD SVG 1.1//EN" "http://www.w3.org/Graphics/SVG/1.1/DTD/svg11.dtd">
<svg version="1.1" id="Layer_1" xmlns="http://www.w3.org/2000/svg" xmlns:xlink="http://www.w3.org/1999/xlink" x="0px" y="0px"
	 width="192px" height="256px" viewBox="31 0 192 256" enable-background="new 31 0 192 256" xml:space="preserve">
<g>
	<g>
		<g>
			<g>
				<g>
					<path fill="none" stroke="#734C33" stroke-width="2" stroke-miterlimit="10" d="M220.23,201.588"/>
				</g>
			</g>
			<g>
				<g>
					<path fill="#734C33" d="M203.75,256H51.722C37.107,256,31,243.691,31,234V24C31,8.376,39.922,0,54.875,0h109.568L223,62.425
						V235C223,249.081,214.919,256,203.75,256z M54.875,12.8C46.026,12.8,43.8,16.669,43.8,24v210c0,3.794,1.236,8.67,7.941,9.2
						H203.75c5.188,0,6.45-5.771,6.45-8.2V67.487L158.906,12.8H54.875z"/>
				</g>
			</g>
		</g>
	</g>
	<g>
		<g>
			<path fill="#734C33" d="M60.412,158.791v-48.834H81.76c5.232,0,9.418,1.395,12.418,4.116c3.069,2.721,4.604,6.209,4.604,10.604
				c0,4.396-1.535,7.953-4.604,10.675c-3,2.721-7.186,4.115-12.418,4.115H70.458v19.324H60.412z M70.458,130.886h10.604
				c4.814,0,7.674-2.163,7.674-6.069c0-3.907-2.86-6.069-7.674-6.069H70.458V130.886z"/>
			<path fill="#734C33" d="M106.383,158.791v-48.834h18.278c7.883,0,14.371,2.302,19.323,6.836
				c4.953,4.534,7.466,10.395,7.466,17.581c0,7.187-2.513,13.115-7.466,17.649c-4.952,4.535-11.44,6.768-19.323,6.768H106.383z
				 M116.429,149.792h7.395c10.883,0,17.301-5.721,17.301-15.418s-6.418-15.418-17.301-15.418h-7.395V149.792z"/>
			<path fill="#734C33" d="M160.516,158.791v-48.834h35.789v8.999h-25.742v9.905h19.881v8.861h-19.881v21.067L160.516,158.791
				L160.516,158.791z"/>
		</g>
	</g>
</g>
</svg>
