<?xml version="1.0" encoding="utf-8"?>
<!-- Generator: Adobe Illustrator 16.0.2, SVG Export Plug-In . SVG Version: 6.00 Build 0)  -->
<!DOCTYPE svg PUBLIC "-//W3C//DTD SVG 1.1//EN" "http://www.w3.org/Graphics/SVG/1.1/DTD/svg11.dtd">
<svg version="1.1" id="Layer_1" xmlns="http://www.w3.org/2000/svg" xmlns:xlink="http://www.w3.org/1999/xlink" x="0px" y="0px"
	 width="204px" height="256px" viewBox="26 0 204 256" enable-background="new 26 0 204 256" xml:space="preserve">
<g>
	<g>
		<path fill="#234A5C" d="M162.633,17.033L213,66.8V230.4c0,5.183-3.018,8.6-8.2,8.6H51.2c-5.6,0-8.2-4.357-8.2-8.6V25.6
			c0-4.784,3.417-8.6,8.2-8.6H162 M170.667,0H51.2C37.05,0,26,11.292,26,25.6v204.8c0,13.85,10.267,25.6,25.2,25.6h153.6
			c14.55,0,25.2-11,25.2-25.6V59.733L170.467,0H170.667z"/>
	</g>
	<g>
		<path fill="#234A5C" d="M61.947,158.805v-47.787h21.3c5.325,0,9.558,1.365,12.698,4.164c3.14,2.799,4.71,6.349,4.71,10.786
			c0,4.438-1.57,8.056-4.71,10.854c-3.141,2.799-7.373,4.164-12.698,4.164h-9.011v17.817L61.947,158.805L61.947,158.805z
			 M74.236,130.883h8.123c3.551,0,5.871-1.773,5.871-4.778c0-3.004-2.253-4.711-5.871-4.711h-8.123V130.883z"/>
		<path fill="#234A5C" d="M106.799,158.805v-47.787h19.047c7.782,0,14.13,2.253,19.046,6.689c4.916,4.438,7.373,10.172,7.373,17.204
			c0,7.03-2.457,12.834-7.373,17.271c-4.916,4.438-11.265,6.622-19.046,6.622L106.799,158.805L106.799,158.805z M119.087,148.02
			h5.871c9.284,0,14.608-4.711,14.608-13.107c0-8.397-5.324-13.107-14.608-13.107h-5.871V148.02z"/>
		<path fill="#234A5C" d="M159.91,158.805v-47.787h36.318v10.786h-24.031v6.963h17.955v10.377h-17.955v19.66H159.91z"/>
	</g>
</g>
</svg>
