<?xml version="1.0" encoding="utf-8"?>
<!-- Generator: Adobe Illustrator 16.0.2, SVG Export Plug-In . SVG Version: 6.00 Build 0)  -->
<!DOCTYPE svg PUBLIC "-//W3C//DTD SVG 1.1//EN" "http://www.w3.org/Graphics/SVG/1.1/DTD/svg11.dtd">
<svg version="1.1" id="Layer_1" xmlns="http://www.w3.org/2000/svg" xmlns:xlink="http://www.w3.org/1999/xlink" x="0px" y="0px"
	 width="41.002px" height="44.669px" viewBox="0 0 41.002 44.669" enable-background="new 0 0 41.002 44.669" xml:space="preserve">
<g>
	<g>
		<g>
			<g>
				<path fill="none" stroke="#734C33" stroke-width="2" stroke-miterlimit="10" d="M32.33,33.499"/>
			</g>
			<g>
				<path fill="none" stroke="#734C33" stroke-width="2" stroke-miterlimit="10" d="M4,33V5.439C4,4.098,5.369,3,6.71,3H23.18
					L32,12.149V25"/>
			</g>
			<g>
				<path fill="none" stroke="#734C33" stroke-width="2" stroke-miterlimit="10" d="M32,35v3.378C32,39.72,31.231,41,29.89,41H10"/>
			</g>
			<g>
				<path fill="none" stroke="#734C33" stroke-width="2" stroke-miterlimit="10" d="M17.69,6.05c-3.05,0-1.83,12.199,2.44,17.689
					c3.745,4.815,18.299,12.2,18.299,6.71c0-3.661-13.479-2.624-21.349,0c-5.49,1.829-16.469,7.319-14.639,10.979
					c1.83,3.66,10.979-8.539,14.029-15.859S21.96,6.05,17.69,6.05z"/>
			</g>
		</g>
	</g>
</g>
</svg>
