<?xml version="1.0" encoding="utf-8"?>
<!-- Generator: Adobe Illustrator 16.0.2, SVG Export Plug-In . SVG Version: 6.00 Build 0)  -->
<!DOCTYPE svg PUBLIC "-//W3C//DTD SVG 1.1//EN" "http://www.w3.org/Graphics/SVG/1.1/DTD/svg11.dtd">
<svg version="1.1" id="Layer_1" xmlns="http://www.w3.org/2000/svg" xmlns:xlink="http://www.w3.org/1999/xlink" x="0px" y="0px"
	 width="204px" height="256px" viewBox="26 0 204 256" enable-background="new 26 0 204 256" xml:space="preserve">
<g>
	<g>
		<path fill="#234A5C" d="M162.633,17.033L213,66.8V230.4c0,5.183-3.018,8.6-8.2,8.6H51.2c-5.6,0-8.2-4.357-8.2-8.6V25.6
			c0-4.784,3.417-8.6,8.2-8.6H162 M170.667,0H51.2C37.05,0,26,11.292,26,25.6v204.8c0,13.85,10.267,25.6,25.2,25.6h153.6
			c14.55,0,25.2-11,25.2-25.6V59.733L170.467,0H170.667z"/>
	</g>
	<g>
		<path fill="#234A5C" d="M57.818,158.805v-47.787h21.3c5.324,0,9.557,1.365,12.697,4.164c3.14,2.799,4.711,6.349,4.711,10.786
			c0,4.438-1.57,8.056-4.711,10.854c-3.141,2.798-7.373,4.164-12.697,4.164h-9.012v17.817L57.818,158.805L57.818,158.805z
			 M70.106,130.883h8.124c3.55,0,5.871-1.773,5.871-4.778c0-3.004-2.253-4.711-5.871-4.711h-8.124V130.883z"/>
		<path fill="#234A5C" d="M102.669,158.805v-47.787h10.513l20.89,26.283v-26.283h12.016v47.787h-10.172l-21.163-26.42v26.42H102.669
			z"/>
		<path fill="#234A5C" d="M161.174,152.797c-4.984-4.71-7.441-10.648-7.441-17.886c0-7.305,2.525-13.244,7.51-17.887
			c4.984-4.642,11.333-6.963,18.979-6.963c4.984,0,9.627,1.16,13.928,3.413v11.537c-4.369-2.389-8.738-3.618-13.039-3.618
			c-4.369,0-7.92,1.298-10.649,3.823c-2.729,2.526-4.097,5.804-4.097,9.899c0,4.232,1.298,7.576,3.892,10.035
			c2.595,2.457,5.733,3.687,9.489,3.687c3.209,0,5.734-0.751,7.578-2.253V130.95h12.355v21.231
			c-1.912,2.115-4.643,3.892-8.261,5.394c-3.618,1.434-7.51,2.185-11.674,2.185C172.369,159.761,166.157,157.439,161.174,152.797z"
			/>
	</g>
</g>
</svg>
