<?xml version="1.0" encoding="utf-8"?>
<!-- Generator: Adobe Illustrator 16.0.2, SVG Export Plug-In . SVG Version: 6.00 Build 0)  -->
<!DOCTYPE svg PUBLIC "-//W3C//DTD SVG 1.1//EN" "http://www.w3.org/Graphics/SVG/1.1/DTD/svg11.dtd">
<svg version="1.1" id="Layer_1" xmlns="http://www.w3.org/2000/svg" xmlns:xlink="http://www.w3.org/1999/xlink" x="0px" y="0px"
	 width="22.742px" height="27.439px" viewBox="0 0 22.742 27.439" enable-background="new 0 0 22.742 27.439" xml:space="preserve">
<path fill-rule="evenodd" clip-rule="evenodd" fill="#F8F5F3" d="M13.595,20.697c-0.54-0.361-1.405-0.881-1.847-1.245
	c-1.728-1.415-3.161-3.148-4.414-5.059c-0.627-0.96-1.377-2.487-1.787-3.664c0.718-0.67,1.751-1.665,2.399-2.292
	c1.424-1.38,1.44-1.564,0.202-3.132c-0.5-0.634-1.011-1.259-1.517-1.888C6.14,2.805,5.65,2.195,5.157,1.586
	c-1.25-1.543-1.451-1.642-2.964-0.21c-0.69,0.652-0.228,0.25-0.93,0.886C0.563,2.894,0.186,3.698,0.067,4.667
	c-0.185,1.512,0.075,2.974,0.47,4.411c0.826,3.006,2.192,5.709,3.89,8.224c2.328,3.45,5.195,6.236,8.617,8.316
	c1.442,0.875,2.955,1.572,4.617,1.781c1.195,0.148,2.27-0.088,3.165-1.07c0.603-0.664,0.15-0.162,0.791-0.78
	c1.428-1.378,1.496-1.634,0.209-3.248c-0.979-1.224-1.962-2.444-2.951-3.661c-1.254-1.546-1.538-1.563-2.958-0.208
	C15.279,19.041,14.283,20.012,13.595,20.697z"/>
</svg>
