<?xml version="1.0" encoding="utf-8"?>
<!-- Generator: Adobe Illustrator 16.0.2, SVG Export Plug-In . SVG Version: 6.00 Build 0)  -->
<!DOCTYPE svg PUBLIC "-//W3C//DTD SVG 1.1//EN" "http://www.w3.org/Graphics/SVG/1.1/DTD/svg11.dtd">
<svg version="1.1" id="Layer_1" xmlns="http://www.w3.org/2000/svg" xmlns:xlink="http://www.w3.org/1999/xlink" x="0px" y="0px"
	 width="24px" height="29px" viewBox="0 0 24 29" enable-background="new 0 0 24 29" xml:space="preserve">
<g display="none">
	<g display="inline">
		<g>
			<path fill="#214A5C" d="M16.086,2L22,7.829V23v3c0,0.607-0.393,1-1,1H3c-0.657,0-1-0.503-1-1V3c0-0.561,0.439-1,1-1h13 M17,0H3
				C1.341,0,0,1.323,0,3v23c0,1.623,1.25,3,3,3h18c1.705,0,3-1.289,3-3v-3V7L17,0L17,0z"/>
		</g>
	</g>
	<g display="inline">
		<text transform="matrix(1 0 0 1 3.7236 18.6104)" fill="#214A5C" font-family="'Geometria-ExtraBold'" font-size="8">PDF</text>
	</g>
</g>
<g display="none">
	<g display="inline">
		<g>
			<path fill="#214A5C" d="M16.171,2L22,8.162v15.171v3C22,26.94,21.607,27,21,27H3c-0.657,0-1-0.17-1-0.667v-23
				C2,2.772,2.439,2,3,2h13 M17,0H3C1.341,0,0,1.656,0,3.333v23C0,27.956,1.25,29,3,29h18c1.705,0,3-0.955,3-2.667v-3v-16L17,0L17,0
				z"/>
		</g>
	</g>
	<g display="inline">
		<text transform="matrix(1 0 0 1 2.5479 18.9434)" fill="#214A5C" font-family="'Geometria-ExtraBold'" font-size="8">DOC</text>
	</g>
</g>
<g display="none">
	<g display="inline">
		<g>
			<path fill="#214A5C" d="M16.171,2L22,7.496v15.171v3C22,26.274,21.607,27,21,27H3c-0.657,0-1-0.836-1-1.333v-23
				C2,2.106,2.439,2,3,2h13 M17,0H3C1.341,0,0,0.99,0,2.667v23C0,27.29,1.25,29,3,29h18c1.705,0,3-1.622,3-3.333v-3v-16L17,0L17,0z"
				/>
		</g>
	</g>
	<g display="inline">
		<text transform="matrix(1 0 0 1 5.1479 18.2773)" fill="#214A5C" font-family="'Geometria-ExtraBold'" font-size="8">ZIP</text>
	</g>
</g>
<g display="none">
	<g display="inline">
		<g>
			<path fill="#214A5C" d="M16.086,2L22,7.829V23v3c0,0.607-0.393,1-1,1H3c-0.657,0-1-0.503-1-1V3c0-0.561,0.439-1,1-1h13 M17,0H3
				C1.341,0,0,1.323,0,3v23c0,1.623,1.25,3,3,3h18c1.705,0,3-1.289,3-3v-3V7L17,0L17,0z"/>
		</g>
	</g>
	<g display="inline">
		<text transform="matrix(1 0 0 1 2.8999 18.6104)" fill="#214A5C" font-family="'Geometria-ExtraBold'" font-size="8">PNG</text>
	</g>
</g>
<g>
	<g>
		<g>
			<path fill="#214A5C" d="M16.086,2L22,7.829V23v3c0,0.607-0.393,1-1,1H3c-0.657,0-1-0.503-1-1V3c0-0.561,0.439-1,1-1h13 M17,0H3
				C1.341,0,0,1.323,0,3v23c0,1.623,1.25,3,3,3h18c1.705,0,3-1.289,3-3v-3V7L17,0L17,0z"/>
		</g>
	</g>
	<g>
		<text transform="matrix(1 0 0 1 2.896 18.6104)" fill="#214A5C" font-family="'Geometria-ExtraBold'" font-size="8">XML</text>
	</g>
</g>
</svg>
