<?xml version="1.0" encoding="utf-8"?>
<!-- Generator: Adobe Illustrator 16.0.2, SVG Export Plug-In . SVG Version: 6.00 Build 0)  -->
<!DOCTYPE svg PUBLIC "-//W3C//DTD SVG 1.1//EN" "http://www.w3.org/Graphics/SVG/1.1/DTD/svg11.dtd">
<svg version="1.1" id="Layer_1" xmlns="http://www.w3.org/2000/svg" xmlns:xlink="http://www.w3.org/1999/xlink" x="0px" y="0px"
	 width="204px" height="256px" viewBox="26 0 204 256" enable-background="new 26 0 204 256" xml:space="preserve">
<g>
	<g>
		<path fill="#234A5C" d="M162.633,17.033L213,66.8V230.4c0,5.183-3.018,8.6-8.2,8.6H51.2c-5.6,0-8.2-4.357-8.2-8.6V25.6
			c0-4.784,3.417-8.6,8.2-8.6H162 M170.667,0H51.2C37.05,0,26,11.292,26,25.6v204.8c0,13.85,10.267,25.6,25.2,25.6h153.6
			c14.55,0,25.2-11,25.2-25.6V59.733L170.467,0H170.667z"/>
	</g>
	<g>
		<path fill="#234A5C" d="M52.922,158.805l18.296-25.669l-15.565-22.118h14.336l8.466,12.288l8.533-12.288h14.131l-15.564,22.05
			l18.296,25.736H89.444l-11.195-15.906l-11.128,15.906H52.922z"/>
		<path fill="#234A5C" d="M108.081,158.805v-47.787h12.22l12.083,18.363l12.152-18.363h12.151v47.787h-12.221v-29.149l-8.533,12.834
			h-6.759l-8.807-12.834v29.149H108.081z"/>
		<path fill="#234A5C" d="M165.834,158.805v-47.787h12.288v37.001h22.938v10.785H165.834z"/>
	</g>
</g>
</svg>
