<?xml version="1.0" encoding="utf-8"?>
<!-- Generator: Adobe Illustrator 16.0.2, SVG Export Plug-In . SVG Version: 6.00 Build 0)  -->
<!DOCTYPE svg PUBLIC "-//W3C//DTD SVG 1.1//EN" "http://www.w3.org/Graphics/SVG/1.1/DTD/svg11.dtd">
<svg version="1.1" id="Layer_1" xmlns="http://www.w3.org/2000/svg" xmlns:xlink="http://www.w3.org/1999/xlink" x="0px" y="0px"
	 width="204px" height="256px" viewBox="26 0 204 256" enable-background="new 26 0 204 256" xml:space="preserve">
<g>
	<g>
		<path fill="#234A5C" d="M162.633,17.033L213,66.8V230.4c0,5.183-3.018,8.6-8.2,8.6H51.2c-5.6,0-8.2-4.357-8.2-8.6V25.6
			c0-4.784,3.417-8.6,8.2-8.6H162 M170.667,0H51.2C37.05,0,26,11.292,26,25.6v204.8c0,13.85,10.267,25.6,25.2,25.6h153.6
			c14.55,0,25.2-11,25.2-25.6V59.733L170.467,0H170.667z"/>
	</g>
	<g>
		<path fill="#234A5C" d="M69.252,158.805v-8.738l22.802-28.263H70.14v-10.786h38.435v8.67L85.843,148.02h23.825v10.785H69.252z"/>
		<path fill="#234A5C" d="M121.339,158.805v-47.787h12.288v47.787H121.339z"/>
		<path fill="#234A5C" d="M148.168,158.805v-47.787h21.299c5.325,0,9.559,1.365,12.698,4.164c3.14,2.799,4.711,6.349,4.711,10.786
			c0,4.438-1.569,8.056-4.711,10.854c-3.142,2.798-7.373,4.164-12.698,4.164h-9.011v17.817L148.168,158.805L148.168,158.805z
			 M160.456,130.883h8.124c3.55,0,5.871-1.773,5.871-4.778c0-3.004-2.254-4.711-5.871-4.711h-8.124V130.883z"/>
	</g>
</g>
</svg>
