<svg xmlns="http://www.w3.org/2000/svg" width="1017.553" height="440.541" viewBox="0 0 1017.553 440.541"><g stroke="#F6F5F3" stroke-width="2" stroke-miterlimit="2"><path fill="#F88433" d="M796.909 310.502h121.891v66.701h-121.891z"/><path fill="#56B458" d="M464.45 438.15v-96.783h85.536v15.696l-11.769 13.863v67.224zM597.852 107.783v-25.893l14.386-15.433.262-63.347h50.223v104.673z"/><path fill="#EAE4DF" d="M311.958 438.15l-.524-83.966h29.817l14.909-1.309 15.436-4.183 14.123-7.063 8.893-6.279 8.109-7.584 10.201 13.34 51.528.261v96.783zM2 438.15v-191.47h110.903v22.754l1.565 16.218 4.713 15.698 7.584 14.385 7.061 8.892-26.678 26.679v86.844z"/><path fill="#56B458" d="M549.986 81.89l-13.341-15.695v-63.085h75.855l-.262 63.347-14.386 15.433zM597.852 195.675v-87.892h64.871v87.892zM662.723 129.235v-66.44h85.533v66.44z"/><path fill="#F88433" d="M796.909 195.675v-59.38l118.351-.26 3.54 59.64zM796.909 69.333v-34.001h-24.591v-32.222h118.231l12.288 65.233z"/><path fill="#56B458" d="M662.723 62.795v-59.685h109.595v32.222h-24.062v27.463z"/><path fill="#F88433" d="M796.909 136.295v-66.962l105.928-.99 12.423 67.692zM772.318 438.15v-34.265h24.591v-26.682h121.891v60.947zM796.909 243.54h121.891v66.962h-121.891z"/><path fill="#56B458" d="M662.723 438.15v-57.025h85.533v22.76h24.062v34.265zM597.852 334.829v-91.289h64.871v91.289zM662.723 243.54h85.533v66.962h-85.533zM662.723 381.125v-70.623h85.533v70.623zM484.589 243.54h65.397v97.827h-65.397zM538.217 438.15v-67.224l11.769-13.863h47.866l13.078 13.863v67.224zM402.721 327.766l9.935-12.818 6.804-13.34 4.711-15.428 1.568-15.959v-26.681h58.85v97.827h-20.139l-51.528-.261zM610.93 438.15v-67.224l-13.078-13.863v-22.234h64.871v103.321z"/><path fill="#A99283" d="M107.148 438.15v-86.844l26.678-26.679 3.407 3.66 8.104 7.326 13.605 8.631 15.163 6.017 15.958 3.923h73.502l-.259 83.966z"/><path fill="#72BDD5" d="M57.387 133h-54.387v111h110v-111z"/><path fill="#56B458" d="M484.589 106.738h65.397v88.937h-65.397zM484.589 106.738v-103.628h52.056v63.085l13.341 15.695v24.848z"/><path fill="#72BDD5" d="M415.365 3h-85.365v86h11.116l12.491.761 15.925 3.912 10.319 4.44 13.657 8.628 8.137 7.325 3.677 3.92 9.423 13.341 7.746 20.14 2.509 21.45v23.083h61v-193zM246.952 3h-83.952v86h167v-86z"/><path fill="#EAE4DF" d="M662.723 129.235h85.533v66.439h-85.533z"/><path fill="#72BDD5" d="M116.041 3h-113.041v86h160v-86z"/><path fill="#56B458" d="M597.852 334.829v-91.289h64.871v91.289zM610.93 438.15v-67.224l-13.078-13.863v-22.234h64.871v103.321z"/><path fill="#EAE4DF" d="M160.245 269.173l.261-134.184h181.268l14.125 4.708 11.511 8.107 8.37 13.866 1.832 11.247v97.304l-2.616 13.602-8.894 12.818-13.862 7.845-10.727 1.571h-144.91l-13.861-3.663-11.512-7.845-8.893-13.604z"/></g><path fill="#EAE4DF" d="M927.688 245.406h32.616v192.595h-32.616zM899.729 3.11l24.851 133.574 3.108 56.69h32.616l-3.106-59.796-24.851-130.468z"/><path fill="#DFD3CA" d="M942.248 4.134c.186 1.004 21.771 103.524 24.402 127.185 2.572 23.166 4.296 70.485 4.296 70.485.08 2.199-1.654 3.998-3.854 3.998h-175.969c-2.201 0-4-1.8-4-4v-152.756c0-2.2-1.801-4-4-4h-21.512c-2.199 0-4 1.8-4 4v152.755c0 2.2-1.799 4-4 4h-161.295c-2.199 0-4-1.8-4-4v-104.607c0-2.2-1.799-4-4-4h-21.51c-2.201 0-4 1.8-4 4v104.606c0 2.2-1.801 4-4 4h-134.893c-2.2 0-4-1.8-4-4v-32.5c0-39.823-35.188-72.222-78.437-72.222h-328.846c-2.2 0-4 1.8-4 4v21.51c0 2.2 1.8 4 4 4h109.73c2.2 0 4 1.8 4 4v138.116c0 47.152 37.51 75.329 73.775 75.329h72.882c2.2 0 4 1.8 4 4v86.123c0 2.2 1.8 4 4 4h21.511c2.2 0 4-1.8 4-4v-86.123c0-2.2 1.8-4 4-4h34.053c42.946 0 75.33-32.383 75.33-75.329v-29.394c0-2.2 1.8-4 4-4h134.894c2.199 0 4 1.8 4 4v104.605c0 2.2 1.799 4 4 4h21.51c2.201 0 4-1.8 4-4v-104.604c0-2.2 1.801-4 4-4h161.295c2.201 0 4 1.8 4 4v149.648c0 2.2 1.801 4 4 4h21.512c2.199 0 4-1.8 4-4v-149.648c0-2.2 1.799-4 4-4h176.053c2.2 0 4 1.8 4 4v194.846c0 2.2 1.8 4 4 4h35.488c2.2 0 4-1.8 4-4v-212.708c0-2.2-.048-5.799-.105-7.998 0 0-1.549-58.717-4.688-86.934-2.521-22.695-20.141-103.029-23.758-122.383m-645.529 310.389h-144.446c-17.113 0-44.266-12.439-44.266-45.819v-138.116c0-2.2 1.8-4 4-4h181.605c30.22 0 48.926 22.171 48.926 42.712v99.404c0 26.978-18.842 45.819-45.819 45.819z"/><path stroke="#D0BEB1" stroke-width="2" stroke-miterlimit="10" d="M942.248 4.134c.186 1.004 21.771 103.524 24.402 127.185 2.572 23.166 4.296 70.485 4.296 70.485.08 2.199-1.654 3.998-3.854 3.998h-175.969c-2.201 0-4-1.8-4-4v-152.756c0-2.2-1.801-4-4-4h-21.512c-2.199 0-4 1.8-4 4v152.755c0 2.2-1.799 4-4 4h-161.295c-2.199 0-4-1.8-4-4v-104.607c0-2.2-1.799-4-4-4h-21.51c-2.201 0-4 1.8-4 4v104.606c0 2.2-1.801 4-4 4h-134.893c-2.2 0-4-1.8-4-4v-32.5c0-39.823-35.188-72.222-78.437-72.222h-328.846c-2.2 0-4 1.8-4 4v21.51c0 2.2 1.8 4 4 4h109.73c2.2 0 4 1.8 4 4v138.116c0 47.152 37.51 75.329 73.775 75.329h72.882c2.2 0 4 1.8 4 4v86.123c0 2.2 1.8 4 4 4h21.511c2.2 0 4-1.8 4-4v-86.123c0-2.2 1.8-4 4-4h34.053c42.946 0 75.33-32.383 75.33-75.329v-29.394c0-2.2 1.8-4 4-4h134.894c2.199 0 4 1.8 4 4v104.605c0 2.2 1.799 4 4 4h21.51c2.201 0 4-1.8 4-4v-104.604c0-2.2 1.801-4 4-4h161.295c2.201 0 4 1.8 4 4v149.648c0 2.2 1.801 4 4 4h21.512c2.199 0 4-1.8 4-4v-149.648c0-2.2 1.799-4 4-4h176.053c2.2 0 4 1.8 4 4v194.846c0 2.2 1.8 4 4 4h35.488c2.2 0 4-1.8 4-4v-212.708c0-2.2-.048-5.799-.105-7.998 0 0-1.549-58.717-4.688-86.934-2.521-22.695-20.141-103.029-23.758-122.383m-645.529 310.389h-144.446c-17.113 0-44.266-12.439-44.266-45.819v-138.116c0-2.2 1.8-4 4-4h181.605c30.22 0 48.926 22.171 48.926 42.712v99.404c0 26.978-18.842 45.819-45.819 45.819z" fill="none"/><linearGradient id="a" gradientUnits="userSpaceOnUse" x1="-12202.068" y1="2821.464" x2="-12250.228" y2="2821.464" gradientTransform="matrix(0 -1 1 0 -1828.449 -11810.711)"><stop offset="0" stop-color="#F6F5F3" stop-opacity="0"/><stop offset=".944" stop-color="#F6F5F3"/></linearGradient><path fill="url(#a)" d="M968.479 389.285h49.074v51.256h-49.074z"/><linearGradient id="b" gradientUnits="userSpaceOnUse" x1="-12196.68" y1="2116.481" x2="-12248.949" y2="2116.481" gradientTransform="matrix(0 -1 1 0 -1828.449 -11810.711)"><stop offset="0" stop-color="#F6F5F3" stop-opacity="0"/><stop offset=".944" stop-color="#F6F5F3"/></linearGradient><path fill="url(#b)" d="M264.994 383.721h46.078v55.629h-46.078z"/><linearGradient id="c" gradientUnits="userSpaceOnUse" x1="612.624" y1="168.434" x2="564.463" y2="168.434" gradientTransform="translate(-560.78 -57.379)"><stop offset="0" stop-color="#F6F5F3" stop-opacity="0"/><stop offset=".944" stop-color="#F6F5F3"/></linearGradient><path fill="url(#c)" d="M2.659 88.016h51.256v46.077h-51.256z"/><linearGradient id="d" gradientUnits="userSpaceOnUse" x1="-1587.355" y1="-11972.528" x2="-1635.517" y2="-11972.528" gradientTransform="matrix(0 1 -1 0 -11002.449 1638.289)"><stop offset="0" stop-color="#F6F5F3" stop-opacity="0"/><stop offset="1" stop-color="#F6F5F3"/></linearGradient><path fill="url(#d)" d="M948.334 53.005l-12.424-51.257h55.913l12.427 51.257z"/><linearGradient id="e" gradientUnits="userSpaceOnUse" x1="-12196.68" y1="2116.481" x2="-12248.949" y2="2116.481" gradientTransform="matrix(0 -1 1 0 -1828.449 -11810.711)"><stop offset="0" stop-color="#F6F5F3" stop-opacity="0"/><stop offset=".944" stop-color="#F6F5F3"/></linearGradient><path fill="url(#e)" d="M264.994 383.721h46.078v55.629h-46.078z"/><linearGradient id="f" gradientUnits="userSpaceOnUse" x1="612.624" y1="168.434" x2="564.463" y2="168.434" gradientTransform="translate(-560.78 -57.379)"><stop offset="0" stop-color="#F6F5F3" stop-opacity="0"/><stop offset=".944" stop-color="#F6F5F3"/></linearGradient><path fill="url(#f)" d="M2.659 88.016h51.256v46.077h-51.256z"/><text transform="translate(13.617 116.494)" fill="#A99283" font-family="'Geometria'" font-size="14">← Море</text><text transform="matrix(0 -1 1 0 294.65 423.629)" fill="#A99283" font-family="'Geometria'" font-size="14">← Газпром</text><path d="M992.315 205.023c-.379-27.117-1.985-54.026-4.706-78.506-2.521-22.696-20.283-101.837-23.899-121.19" fill="none"/><text transform="matrix(-.103 -.995 .995 -.103 993.241 135.486)"><tspan x="0" y="0" fill="#A99283" font-family="'Geometria'" font-size="14">З</tspan><tspan x="9.087" y=".04" fill="#A99283" font-family="'Geometria'" font-size="14" rotate="-2.014">е</tspan><tspan x="17.221" y="-.264" fill="#A99283" font-family="'Geometria'" font-size="14" rotate="-3.696">л</tspan><tspan x="25.642" y="-.815" fill="#A99283" font-family="'Geometria'" font-size="14" rotate="-4.48">е</tspan><tspan x="33.634" y="-1.443" fill="#A99283" font-family="'Geometria'" font-size="14" rotate="-4.957">н</tspan><tspan x="42.179" y="-2.185" fill="#A99283" font-family="'Geometria'" font-size="14" rotate="-5.291">о</tspan><tspan x="50.828" y="-2.988" fill="#A99283" font-family="'Geometria'" font-size="14" rotate="-5.507">г</tspan><tspan x="57.596" y="-3.64" fill="#A99283" font-family="'Geometria'" font-size="14" rotate="-5.674">р</tspan><tspan x="66.456" y="-4.521" fill="#A99283" font-family="'Geometria'" font-size="14" rotate="-5.813">а</tspan><tspan x="74.737" y="-5.364" fill="#A99283" font-family="'Geometria'" font-size="14" rotate="-5.915">д</tspan><tspan x="83.763" y="-6.301" fill="#A99283" font-family="'Geometria'" font-size="14" rotate="-5.981">с</tspan><tspan x="91.064" y="-7.065" fill="#A99283" font-family="'Geometria'" font-size="14" rotate="-6.016">к</tspan><tspan x="102.282" y="-8.25" fill="#A99283" font-family="'Geometria'" font-size="14" rotate="-6.008">→</tspan></text><path fill="none" d="M992.401 436.964v-202.429"/><text transform="matrix(0 -1 1 0 997.062 414.863)"><tspan x="0" y="0" fill="#A99283" font-family="'Geometria'" font-size="14">←</tspan><tspan x="13.842" y="0" fill="#A99283" font-family="'Geometria'" font-size="14">К</tspan><tspan x="23.1" y="0" fill="#A99283" font-family="'Geometria'" font-size="14">а</tspan><tspan x="31.402" y="0" fill="#A99283" font-family="'Geometria'" font-size="14">л</tspan><tspan x="39.821" y="0" fill="#A99283" font-family="'Geometria'" font-size="14">и</tspan><tspan x="48.461" y="0" fill="#A99283" font-family="'Geometria'" font-size="14">н</tspan><tspan x="57.005" y="0" fill="#A99283" font-family="'Geometria'" font-size="14">и</tspan><tspan x="65.674" y="0" fill="#A99283" font-family="'Geometria'" font-size="14">н</tspan><tspan x="74.243" y="0" fill="#A99283" font-family="'Geometria'" font-size="14">г</tspan><tspan x="80.996" y="0" fill="#A99283" font-family="'Geometria'" font-size="14">р</tspan><tspan x="89.919" y="0" fill="#A99283" font-family="'Geometria'" font-size="14">а</tspan><tspan x="98.216" y="0" fill="#A99283" font-family="'Geometria'" font-size="14">д</tspan></text><text transform="translate(119.958 391.489)"><tspan x="0" y="0" fill="#F6F5F3" font-family="'Geometria'" font-size="14">№2</tspan><tspan x="0" y="16" fill="#F6F5F3" font-family="'Geometria'" font-size="14">2300</tspan><tspan x="39.564" y="16" fill="#F6F5F3" font-family="'Geometria'" font-size="12">м²</tspan><tspan x="0" y="32" fill="#F6F5F3" font-family="'Geometria'" font-size="14">34.5</tspan><tspan x="32.214" y="32" fill="#F6F5F3" font-family="'Geometria'" font-size="12">млн. ₷</tspan></text><text transform="translate(807.852 394.993)"><tspan x="0" y="0" font-family="'Geometria'" font-size="14">№30</tspan><tspan x="0" y="16" font-family="'Geometria'" font-size="14">290</tspan><tspan x="30.632" y="16" font-family="'Geometria'" font-size="12">м²</tspan><tspan x="0" y="32" font-family="'Geometria'" font-size="14">3.9</tspan><tspan x="23.968" y="32" font-family="'Geometria'" font-size="12">млн. ₷</tspan></text><text transform="translate(807.852 333.094)"><tspan x="0" y="0" font-family="'Geometria'" font-size="14">№29</tspan><tspan x="0" y="16" font-family="'Geometria'" font-size="14">280</tspan><tspan x="30.688" y="16" font-family="'Geometria'" font-size="12">м²</tspan><tspan x="0" y="32" font-family="'Geometria'" font-size="14">4.1</tspan><tspan x="21.084" y="32" font-family="'Geometria'" font-size="12">млн. ₷</tspan></text><text transform="translate(807.852 265.356)"><tspan x="0" y="0" font-family="'Geometria'" font-size="14">№28</tspan><tspan x="0" y="16" font-family="'Geometria'" font-size="14">290</tspan><tspan x="30.632" y="16" font-family="'Geometria'" font-size="12">м²</tspan><tspan x="0" y="32" font-family="'Geometria'" font-size="14">4</tspan><tspan x="12.558" y="32" font-family="'Geometria'" font-size="12">млн. ₷</tspan></text><text transform="translate(807.852 153.237)"><tspan x="0" y="0" font-family="'Geometria'" font-size="14">№27</tspan><tspan x="0" y="16" font-family="'Geometria'" font-size="14">250</tspan><tspan x="30.016" y="16" font-family="'Geometria'" font-size="12">м²</tspan><tspan x="0" y="32" font-family="'Geometria'" font-size="14">3.7</tspan><tspan x="22.736" y="32" font-family="'Geometria'" font-size="12">млн. ₷</tspan></text><text transform="translate(807.852 91.338)"><tspan x="0" y="0" font-family="'Geometria'" font-size="14">№26</tspan><tspan x="0" y="16" font-family="'Geometria'" font-size="14">260</tspan><tspan x="30.632" y="16" font-family="'Geometria'" font-size="12">м²</tspan><tspan x="0" y="32" font-family="'Geometria'" font-size="14">3.8</tspan><tspan x="24.024" y="32" font-family="'Geometria'" font-size="12">млн. ₷</tspan></text><text transform="translate(807.852 23.6)"><tspan x="0" y="0" font-family="'Geometria'" font-size="14">№25</tspan><tspan x="0" y="16" font-family="'Geometria'" font-size="14">250</tspan><tspan x="30.016" y="16" font-family="'Geometria'" font-size="12">м²</tspan><tspan x="0" y="32" font-family="'Geometria'" font-size="14">3.6</tspan><tspan x="23.968" y="32" font-family="'Geometria'" font-size="12">млн. ₷</tspan></text><text transform="translate(340.692 42.287)"><tspan x="0" y="0" font-family="'Geometria'" font-size="14">№7</tspan><tspan x="0" y="16" font-family="'Geometria'" font-size="14">2000</tspan><tspan x="41.481" y="16" font-family="'Geometria'" font-size="12">м²</tspan><tspan x="0" y="32" font-family="'Geometria'" font-size="14">34.5</tspan><tspan x="32.213" y="32" font-family="'Geometria'" font-size="12">млн. ₷</tspan></text><text transform="translate(14.847 390.321)"><tspan x="0" y="0" fill="#A99283" font-family="'Geometria'" font-size="14">№3</tspan><tspan x="0" y="16" fill="#A99283" font-family="'Geometria'" font-size="14">2100</tspan><tspan x="36.792" y="16" fill="#A99283" font-family="'Geometria'" font-size="12">м²</tspan><tspan x="0" y="32" fill="#A99283" font-family="'Geometria'" font-size="14">34.5</tspan><tspan x="32.214" y="32" fill="#A99283" font-family="'Geometria'" font-size="12">млн. ₷</tspan></text><text transform="translate(324.341 390.321)"><tspan x="0" y="0" fill="#A99283" font-family="'Geometria'" font-size="14">№1</tspan><tspan x="0" y="16" fill="#A99283" font-family="'Geometria'" font-size="14">2000</tspan><tspan x="41.481" y="16" fill="#A99283" font-family="'Geometria'" font-size="12">м²</tspan><tspan x="0" y="32" fill="#A99283" font-family="'Geometria'" font-size="14">34.5</tspan><tspan x="32.213" y="32" fill="#A99283" font-family="'Geometria'" font-size="12">млн. ₷</tspan></text><text transform="translate(173.682 43.455)"><tspan x="0" y="0" font-family="'Geometria'" font-size="14">№6</tspan><tspan x="0" y="16" font-family="'Geometria'" font-size="14">2000</tspan><tspan x="41.481" y="16" font-family="'Geometria'" font-size="12">м²</tspan><tspan x="0" y="32" font-family="'Geometria'" font-size="14">30.5</tspan><tspan x="33.264" y="32" font-family="'Geometria'" font-size="12">млн. ₷</tspan></text><text transform="translate(14.847 43.455)"><tspan x="0" y="0" font-family="'Geometria'" font-size="14">№5</tspan><tspan x="0" y="16" font-family="'Geometria'" font-size="14">2000</tspan><tspan x="41.482" y="16" font-family="'Geometria'" font-size="12">м²</tspan><tspan x="0" y="32" font-family="'Geometria'" font-size="14">30.5</tspan><tspan x="33.264" y="32" font-family="'Geometria'" font-size="12">млн. ₷</tspan></text><text transform="translate(14.847 194.114)"><tspan x="0" y="0" font-family="'Geometria'" font-size="14">№4</tspan><tspan x="0" y="16" font-family="'Geometria'" font-size="14">1740</tspan><tspan x="35.434" y="16" font-family="'Geometria'" font-size="12">м²</tspan><tspan x="0" y="32" font-family="'Geometria'" font-size="14">29.5</tspan><tspan x="32.382" y="32" font-family="'Geometria'" font-size="12">млн. ₷</tspan></text><text transform="translate(671.208 397.329)"><tspan x="0" y="0" font-family="'Geometria'" font-size="14">№24</tspan><tspan x="0" y="16" font-family="'Geometria'" font-size="14">800</tspan><tspan x="32.55" y="16" font-family="'Geometria'" font-size="12">м²</tspan><tspan x="0" y="32" font-family="'Geometria'" font-size="14">6.8</tspan><tspan x="25.004" y="32" font-family="'Geometria'" font-size="12">млн. ₷</tspan></text><text transform="translate(547.41 393.825)"><tspan x="0" y="0" font-family="'Geometria'" font-size="14">№11</tspan><tspan x="0" y="16" font-family="'Geometria'" font-size="14">800</tspan><tspan x="28.854" y="16" font-family="'Geometria'" font-size="12">м²</tspan><tspan x="0" y="32" font-family="'Geometria'" font-size="14">7 млн.</tspan><tspan x="45.149" y="32" font-family="'Geometria'" font-size="12">₷</tspan></text><text transform="translate(473.832 393.825)"><tspan x="0" y="0" font-family="'Geometria'" font-size="14">№10</tspan><tspan x="0" y="16" font-family="'Geometria'" font-size="14">1040</tspan><tspan x="37.604" y="16" font-family="'Geometria'" font-size="12">м²</tspan><tspan x="0" y="32" font-family="'Geometria'" font-size="14">8.4</tspan><tspan x="24.892" y="32" font-family="'Geometria'" font-size="12">М₷</tspan></text><text transform="translate(671.208 333.094)"><tspan x="0" y="0" font-family="'Geometria'" font-size="14">№23</tspan><tspan x="0" y="16" font-family="'Geometria'" font-size="14">850</tspan><tspan x="30.996" y="16" font-family="'Geometria'" font-size="12">м²</tspan><tspan x="0" y="32" font-family="'Geometria'" font-size="14">7</tspan><tspan x="11.438" y="32" font-family="'Geometria'" font-size="12">млн. ₷</tspan></text><text transform="translate(671.208 265.356)"><tspan x="0" y="0" font-family="'Geometria'" font-size="14">№22</tspan><tspan x="0" y="16" font-family="'Geometria'" font-size="14">810</tspan><tspan x="27.859" y="16" font-family="'Geometria'" font-size="12">м²</tspan><tspan x="0" y="32" font-family="'Geometria'" font-size="14">6.8</tspan><tspan x="25.004" y="32" font-family="'Geometria'" font-size="12">млн. ₷</tspan></text><text transform="translate(616 393.825)"><tspan x="0" y="0" font-family="'Geometria'" font-size="14">№12</tspan><tspan x="0" y="16" font-family="'Geometria'" font-size="14">810</tspan><tspan x="27.859" y="16" font-family="'Geometria'" font-size="12">м²</tspan><tspan x="0" y="32" font-family="'Geometria'" font-size="14">6.8</tspan><tspan x="25.004" y="32" font-family="'Geometria'" font-size="12">М₷</tspan></text><text transform="translate(605.806 289.882)"><tspan x="0" y="0" font-family="'Geometria'" font-size="14">№13</tspan><tspan x="0" y="16" font-family="'Geometria'" font-size="14">830</tspan><tspan x="30.632" y="16" font-family="'Geometria'" font-size="12">м²</tspan><tspan x="0" y="32" font-family="'Geometria'" font-size="14">7.2</tspan><tspan x="22.792" y="32" font-family="'Geometria'" font-size="12">М₷</tspan></text><text transform="translate(606 148.566)"><tspan x="0" y="0" font-family="'Geometria'" font-size="14">№18</tspan><tspan x="0" y="16" font-family="'Geometria'" font-size="14">800</tspan><tspan x="32.55" y="16" font-family="'Geometria'" font-size="12">м²</tspan><tspan x="0" y="32" font-family="'Geometria'" font-size="14">6.8</tspan><tspan x="25.004" y="32" font-family="'Geometria'" font-size="12">М₷</tspan></text><text transform="translate(614 65.644)"><tspan x="0" y="0" font-family="'Geometria'" font-size="14">№17</tspan><tspan x="0" y="16" font-family="'Geometria'" font-size="14">800</tspan><tspan x="32.55" y="16" font-family="'Geometria'" font-size="12">м²</tspan><tspan x="0" y="32" font-family="'Geometria'" font-size="14">6.4</tspan><tspan x="24.836" y="32" font-family="'Geometria'" font-size="12">М₷</tspan></text><text transform="translate(671.208 148.566)"><tspan x="0" y="0" fill="#A99283" font-family="'Geometria'" font-size="14">№21</tspan><tspan x="0" y="16" fill="#A99283" font-family="'Geometria'" font-size="14">800</tspan><tspan x="32.55" y="16" fill="#A99283" font-family="'Geometria'" font-size="12">м²</tspan><tspan x="0" y="32" fill="#A99283" font-family="'Geometria'" font-size="14">6.6</tspan><tspan x="24.948" y="32" fill="#A99283" font-family="'Geometria'" font-size="12">млн. ₷</tspan></text><text transform="translate(671.208 83.163)"><tspan x="0" y="0" font-family="'Geometria'" font-size="14">№20</tspan><tspan x="0" y="16" font-family="'Geometria'" font-size="14">800</tspan><tspan x="32.55" y="16" font-family="'Geometria'" font-size="12">м²</tspan><tspan x="0" y="32" font-family="'Geometria'" font-size="14">6.4</tspan><tspan x="24.836" y="32" font-family="'Geometria'" font-size="12">млн. ₷</tspan></text><text transform="translate(671.208 21.265)"><tspan x="0" y="0" font-family="'Geometria'" font-size="14">№19</tspan><tspan x="0" y="16" font-family="'Geometria'" font-size="14">800</tspan><tspan x="32.55" y="16" font-family="'Geometria'" font-size="12">м²</tspan><tspan x="0" y="32" font-family="'Geometria'" font-size="14">6.2</tspan><tspan x="24.023" y="32" font-family="'Geometria'" font-size="12">млн. ₷</tspan></text><text transform="translate(490.183 64.477)"><tspan x="0" y="0" font-family="'Geometria'" font-size="14">№15</tspan><tspan x="0" y="16" font-family="'Geometria'" font-size="14">800</tspan><tspan x="32.549" y="16" font-family="'Geometria'" font-size="12">м²</tspan><tspan x="0" y="32" font-family="'Geometria'" font-size="14">6.8</tspan><tspan x="25.003" y="32" font-family="'Geometria'" font-size="12">М₷</tspan></text><text transform="translate(490.183 148.566)"><tspan x="0" y="0" font-family="'Geometria'" font-size="14">№14</tspan><tspan x="0" y="16" font-family="'Geometria'" font-size="14">800</tspan><tspan x="32.549" y="16" font-family="'Geometria'" font-size="12">м²</tspan><tspan x="0" y="32" font-family="'Geometria'" font-size="14">7</tspan><tspan x="11.438" y="32" font-family="'Geometria'" font-size="12">М₷</tspan></text><text transform="translate(490.183 289.882)"><tspan x="0" y="0" font-family="'Geometria'" font-size="14">№9</tspan><tspan x="0" y="16" font-family="'Geometria'" font-size="14">900</tspan><tspan x="32.494" y="16" font-family="'Geometria'" font-size="12">м²</tspan><tspan x="0" y="32" font-family="'Geometria'" font-size="14">7.4</tspan><tspan x="23.604" y="32" font-family="'Geometria'" font-size="12">М₷</tspan></text><text transform="translate(432.956 289.882)"><tspan x="0" y="0" font-family="'Geometria'" font-size="14">№8</tspan><tspan x="0" y="16" font-family="'Geometria'" font-size="14">900</tspan><tspan x="32.493" y="16" font-family="'Geometria'" font-size="12">м²</tspan><tspan x="0" y="32" font-family="'Geometria'" font-size="14">7.9</tspan><tspan x="23.715" y="32" font-family="'Geometria'" font-size="12">М₷</tspan></text><text transform="translate(546.242 35.279)"><tspan x="0" y="0" font-family="'Geometria'" font-size="14">№16</tspan><tspan x="0" y="16" font-family="'Geometria'" font-size="14">800</tspan><tspan x="32.55" y="16" font-family="'Geometria'" font-size="12">м²</tspan><tspan x="0" y="32" font-family="'Geometria'" font-size="14">6.6</tspan><tspan x="24.947" y="32" font-family="'Geometria'" font-size="12">М₷</tspan></text></svg>