<svg xmlns="http://www.w3.org/2000/svg" width="324.161" height="675.2" viewBox="0 0 324.161 675.2"><g stroke="#F6F5F3" stroke-width="2" stroke-miterlimit="2"><path fill="#F88433" d="M59.144 523.801h42.945v78.479h-42.945z"/><path fill="#56B458" d="M19.905 309.751h62.312v55.071h-10.106l-8.925-7.578h-43.281zM232.607 395.639h16.671l9.936 9.263 40.786.168v32.336h-67.393z"/><path fill="#EAE4DF" d="M19.905 211.57l54.06-.338v19.199l.843 9.599 2.692 9.937 4.548 9.094 4.042 5.725 4.885 5.221-8.59 6.567-.168 33.177h-62.312zM19.905 12.006h123.275v71.405h-14.65l-10.443 1.008-10.106 3.033-9.261 4.884-5.725 4.546-17.177-17.177h-55.913z"/><path fill="#56B458" d="M249.278 364.822l10.105-8.589h40.617v48.837l-40.786-.168-9.936-9.263zM176.019 395.639h56.588v41.767h-56.588zM218.795 437.406h42.775999999999996v55.071h-42.776z"/><path fill="#F88433" d="M176.019 523.801h38.231l.168 76.199-38.399 2.279zM257.362 523.801h21.892v-15.834h20.746v76.122l-42 7.911z"/><path fill="#56B458" d="M261.571 437.406h38.429v70.561h-20.746v-15.49h-17.683z"/><path fill="#F88433" d="M214.25 523.801h43.112l.638 68.199-43.582 8zM19.905 507.967h22.061v15.834h17.178v78.478h-39.239zM102.089 523.801h43.113v78.479h-43.113z"/><path fill="#56B458" d="M19.905 437.406h36.714v55.071h-14.653v15.49h-22.061zM86.427 395.639h58.775v41.767h-58.775zM102.089 437.406h43.113v55.07h-43.113zM56.619 437.406h45.47v55.071h-45.47zM82.217 322.718h62.985v42.104h-62.985zM19.905 357.244h43.281l8.925 7.578v30.817l-8.925 8.422h-43.281zM90.975 270.007l8.252 6.397 8.588 4.38 9.934 3.034 10.274 1.008h17.179v37.892h-62.985v-12.967l.168-33.177zM19.905 404.061h43.281l8.925-8.422h14.316v41.767h-66.52199999999999z"/><path fill="#A99283" d="M19.905 79.705h55.913l17.177 17.177-2.357 2.193-4.717 5.218-5.556 8.759-3.874 9.764-2.526 10.274v47.32299999999999l-54.06-.167z"/><path fill="#72BDD5" d="M215 47.668v-35.668h-71v71h71z"/><path fill="#56B458" d="M176.019 322.718h57.261v42.104h-57.261zM233.28 322.718h66.72v33.515h-40.617l-10.105 8.589h-15.998z"/><path fill="#72BDD5" d="M300 278.147v-56.147000000000006h-55v8.343l-.64 8.042-2.594 10.254-2.896 6.644-5.573 8.792-4.725 5.239-2.53 2.368-8.591 6.066-12.968 4.812-13.813 1.44h-14.67v39h124zM300 169.717v-52.717h-55v105h55z"/><path fill="#EAE4DF" d="M176.019 437.406h42.776v55.07h-42.776z"/><path fill="#72BDD5" d="M300 85.431v-73.431h-55v105h55z"/><path fill="#56B458" d="M86.427 395.639h58.775v41.767h-58.775zM19.905 404.061h43.281l8.925-8.422h14.316v41.767h-66.52199999999999z"/><path fill="#EAE4DF" d="M128.698 113.892l86.393.168v116.707l-3.031 9.094-5.22 7.41-8.926 5.39-7.244 1.18h-62.647l-8.757-1.685-8.253-5.725-5.051-8.926-1.011-6.906v-93.299l2.359-8.924 5.051-7.412 8.758-5.725z"/></g><text transform="translate(110.985 464.109)"><tspan x="0" y="0" font-family="'Geometria'" font-size="16.177">6.8</tspan><tspan x="-3.305" y="15" font-family="'Geometria'" font-size="10.111">млн. ₷</tspan></text><text transform="translate(66.894 463.934)"><tspan x="0" y="0" font-family="'Geometria'" font-size="16.177">7.0</tspan><tspan x="-3.507" y="15" font-family="'Geometria'" font-size="10.111">млн. ₷</tspan></text><text transform="translate(25.044 464.109)"><tspan x="0" y="0" font-family="'Geometria'" font-size="16.177">6.8</tspan><tspan x="-3.305" y="15" font-family="'Geometria'" font-size="10.111">млн. ₷</tspan></text><text transform="translate(22.939 427.827)"><tspan x="0" y="0" font-family="'Geometria'" font-size="16.177">6.8</tspan><tspan x="28.893" y="0" font-family="'Geometria'" font-size="10.111">млн. ₷</tspan></text><text transform="translate(104.972 414.228)"><tspan x="0" y="0" font-family="'Geometria'" font-size="16.177">7.2</tspan><tspan x="-4.583" y="15" font-family="'Geometria'" font-size="10.111">млн. ₷</tspan></text><text transform="translate(100.503 343.413)"><tspan x="0" y="0" font-family="'Geometria'" font-size="16.177">7.4</tspan><tspan x="-4.114" y="15" font-family="'Geometria'" font-size="10.111">млн. ₷</tspan></text><text transform="translate(192.892 343.413)"><tspan x="0" y="0" font-family="'Geometria'" font-size="16.177">7.0</tspan><tspan x="-3.508" y="15" font-family="'Geometria'" font-size="10.111">млн. ₷</tspan></text><text transform="translate(193.692 414.228)"><tspan x="0" y="0" font-family="'Geometria'" font-size="16.177">6.8</tspan><tspan x="-3.305" y="15" font-family="'Geometria'" font-size="10.111">млн. ₷</tspan></text><text transform="translate(255.921 61.519)"><tspan x="0" y="0" font-family="'Geometria'" font-size="16.177">30.5</tspan><tspan x="1.468" y="15" font-family="'Geometria'" font-size="10.111">млн. ₷</tspan></text><text transform="translate(162.648 46.138)"><tspan x="0" y="0" font-family="'Geometria'" font-size="16.177">29.5</tspan><tspan x=".958" y="15" font-family="'Geometria'" font-size="10.111">млн. ₷</tspan></text><text transform="translate(255.921 166.673)"><tspan x="0" y="0" font-family="'Geometria'" font-size="16.177">30.5</tspan><tspan x="1.468" y="15" font-family="'Geometria'" font-size="10.111">млн. ₷</tspan></text><text transform="translate(246.665 284.465)"><tspan x="0" y="0" font-family="'Geometria'" font-size="16.177">34.5</tspan><tspan x=".861" y="15" font-family="'Geometria'" font-size="10.111">млн. ₷</tspan></text><text transform="translate(236.036 427.827)"><tspan x="0" y="0" font-family="'Geometria'" font-size="16.177">6.4</tspan><tspan x="28.698" y="0" font-family="'Geometria'" font-size="10.111">млн. ₷</tspan></text><text transform="translate(235.939 344.49)"><tspan x="0" y="0" font-family="'Geometria'" font-size="16.177">6.8</tspan><tspan x="28.892" y="0" font-family="'Geometria'" font-size="10.111">млн. ₷</tspan></text><text transform="translate(101.438 303.306)"><tspan x="0" y="0" font-family="'Geometria'" font-size="16.177">7.9</tspan><tspan x="-4.049" y="15" font-family="'Geometria'" font-size="10.111">млн. ₷</tspan></text><text transform="translate(32.894 378.412)"><tspan x="0" y="0" font-family="'Geometria'" font-size="16.177">7.0</tspan><tspan x="-3.507" y="15" font-family="'Geometria'" font-size="10.111">млн. ₷</tspan></text><text transform="translate(262.726 378.412)"><tspan x="0" y="0" font-family="'Geometria'" font-size="16.177">6.6</tspan><tspan x="-3.257" y="15" font-family="'Geometria'" font-size="10.111">млн. Р</tspan></text><text transform="translate(36.757 332.412)"><tspan x="0" y="0" font-family="'Geometria'" font-size="16.177">8.4</tspan><tspan x="-3.37" y="15" font-family="'Geometria'" font-size="10.111">млн. ₷</tspan></text><text transform="translate(268.258 464.109)"><tspan x="0" y="0" font-family="'Geometria'" font-size="16.177">6.2</tspan><tspan x="-3.871" y="15" font-family="'Geometria'" font-size="10.111">млн. ₷</tspan></text><text transform="translate(226.348 463.934)"><tspan x="0" y="0" font-family="'Geometria'" font-size="16.177">6.4</tspan><tspan x="-3.402" y="15" font-family="'Geometria'" font-size="10.111">млн. ₷</tspan></text><text transform="translate(184.828 464.109)"><tspan x="0" y="0" fill="#A99283" font-family="'Geometria'" font-size="16.177">6.6</tspan><tspan x="-3.337" y="15" fill="#A99283" font-family="'Geometria'" font-size="10.111">млн. ₷</tspan></text><text transform="translate(141.958 180)"><tspan x="0" y="0" fill="#A99283" font-family="'Geometria'" font-size="16.177">45.6</tspan><tspan x="1.427" y="15" fill="#A99283" font-family="'Geometria'" font-size="10.111">млн. ₷</tspan></text><text transform="translate(65.416 47)"><tspan x="0" y="0" fill="#A99283" font-family="'Geometria'" font-size="16.177">40.5</tspan><tspan x="1.968" y="15" fill="#A99283" font-family="'Geometria'" font-size="10.111">млн. ₷</tspan></text><text transform="translate(32.103 126)"><tspan x="0" y="0" fill="#fff" font-family="'Geometria'" font-size="16.177">39.6</tspan><tspan x="1.281" y="15" fill="#fff" font-family="'Geometria'" font-size="10.111">млн. ₷</tspan></text><text transform="translate(32.168 258)"><tspan x="0" y="0" fill="#A99283" font-family="'Geometria'" font-size="16.177">34.6</tspan><tspan x="1.216" y="15" fill="#A99283" font-family="'Geometria'" font-size="10.111">млн. ₷</tspan></text><text transform="translate(110.54 552.748)"><tspan x="0" y="0" font-family="'Geometria'" font-size="16.177">4.0</tspan><tspan x="-2.86" y="15" font-family="'Geometria'" font-size="10.111">млн. ₷</tspan></text><text transform="translate(70.783 552.573)"><tspan x="0" y="0" font-family="'Geometria'" font-size="16.177">4.1</tspan><tspan x="-5.57" y="15" font-family="'Geometria'" font-size="10.111">млн. ₷</tspan></text><text transform="translate(27.293 552.749)"><tspan x="0" y="0" font-family="'Geometria'" font-size="16.177">3.9</tspan><tspan x="-3.904" y="15" font-family="'Geometria'" font-size="10.111">млн. ₷</tspan></text><text transform="translate(267.291 552.748)"><tspan x="0" y="0" font-family="'Geometria'" font-size="16.177">3.6</tspan><tspan x="-3.903" y="15" font-family="'Geometria'" font-size="10.111">млн. ₷</tspan></text><text transform="translate(225.26 552.413)"><tspan x="0" y="0" font-family="'Geometria'" font-size="16.177">3.8</tspan><tspan x="-3.871" y="15" font-family="'Geometria'" font-size="10.111">млн. ₷</tspan></text><text transform="translate(185.004 552.749)"><tspan x="0" y="0" font-family="'Geometria'" font-size="16.177">3.7</tspan><tspan x="-4.615" y="15" font-family="'Geometria'" font-size="10.111">млн. ₷</tspan></text><path fill="#EAE4DF" d="M20 608h124v21h-124zM300 590l-86 16-36.5 2v21l38.5-2 84-16z"/><path fill="#DFD3CA" d="M320 613.333c-.646.12-87.313 18.061-102.547 19.753-14.914 1.657-43.956 2.715-43.956 2.715-2.198.08-3.997-1.654-3.997-3.854v-110.447c0-2.2 1.799-4 4-4h95.5c2.2 0 4-1.8 4-4v-11c0-2.2-1.8-4-4-4h-95.5c-2.201 0-4-1.8-4-4v-101c0-2.2 1.799-4 4-4h64.5c2.199 0 4-1.8 4-4v-11c0-2.2-1.801-4-4-4h-64.5c-2.201 0-4-1.8-4-4v-84c0-2.2 1.799-4 4-4h19.5c25.64 0 46.5-22.654 46.5-50.5v-219c0-2.2-1.801-4-4-4h-11c-2.201 0-4 1.8-4 4v76.5c0 2.2-1.801 4-4 4h-87.5c-30.358 0-48.5 24.151-48.5 47.5v45.5c0 2.2-1.8 4-4 4h-72.167c-2.2 0-4 1.8-4 4v11c0 2.2 1.8 4 4 4h72.167c2.2 0 4 1.8 4 4v20.5c0 27.65 20.851 48.5 48.5 48.5h17.5c2.2 0 4 1.8 4 4v84c0 2.2-1.8 4-4 4h-64.5c-2.2 0-4 1.8-4 4v11c0 2.2 1.8 4 4 4h64.5c2.2 0 4 1.8 4 4v101c0 2.2-1.8 4-4 4h-93.5c-2.2 0-4 1.8-4 4v11c0 2.2 1.8 4 4 4h93.5c2.2 0 4 1.8 4 4v110.5c0 2.2-1.8 4-4 4h-142.5c-2.2 0-4 1.8-4 4v20c0 2.2 1.8 4 4 4h154c2.199 0 5.799-.048 7.998-.105 0 0 36.38-.961 54.547-2.98 14.612-1.623 86.994-17.01 99.455-19.338m-220.5-411.577v-93c0-11.019 8.009-28.5 29.5-28.5h87.5c2.199 0 4 1.8 4 4v115.5c0 19.457-14.275 31.5-27.5 31.5h-64c-17.369 0-29.5-12.131-29.5-29.5z"/><path stroke="#D0BEB1" stroke-width="2" stroke-miterlimit="10" d="M320 613.333c-.646.12-87.313 18.061-102.547 19.753-14.914 1.657-43.956 2.715-43.956 2.715-2.198.08-3.997-1.654-3.997-3.854v-110.447c0-2.2 1.799-4 4-4h95.5c2.2 0 4-1.8 4-4v-11c0-2.2-1.8-4-4-4h-95.5c-2.201 0-4-1.8-4-4v-101c0-2.2 1.799-4 4-4h64.5c2.199 0 4-1.8 4-4v-11c0-2.2-1.801-4-4-4h-64.5c-2.201 0-4-1.8-4-4v-84c0-2.2 1.799-4 4-4h19.5c25.64 0 46.5-22.654 46.5-50.5v-219c0-2.2-1.801-4-4-4h-11c-2.201 0-4 1.8-4 4v76.5c0 2.2-1.801 4-4 4h-87.5c-30.358 0-48.5 24.151-48.5 47.5v45.5c0 2.2-1.8 4-4 4h-72.167c-2.2 0-4 1.8-4 4v11c0 2.2 1.8 4 4 4h72.167c2.2 0 4 1.8 4 4v20.5c0 27.65 20.851 48.5 48.5 48.5h17.5c2.2 0 4 1.8 4 4v84c0 2.2-1.8 4-4 4h-64.5c-2.2 0-4 1.8-4 4v11c0 2.2 1.8 4 4 4h64.5c2.2 0 4 1.8 4 4v101c0 2.2-1.8 4-4 4h-93.5c-2.2 0-4 1.8-4 4v11c0 2.2 1.8 4 4 4h93.5c2.2 0 4 1.8 4 4v110.5c0 2.2-1.8 4-4 4h-142.5c-2.2 0-4 1.8-4 4v20c0 2.2 1.8 4 4 4h154c2.199 0 5.799-.048 7.998-.105 0 0 36.38-.961 54.547-2.98 14.612-1.623 86.994-17.01 99.455-19.338m-220.5-411.577v-93c0-11.019 8.009-28.5 29.5-28.5h87.5c2.199 0 4 1.8 4 4v115.5c0 19.457-14.275 31.5-27.5 31.5h-64c-17.369 0-29.5-12.131-29.5-29.5z" fill="none"/><linearGradient id="a" gradientUnits="userSpaceOnUse" x1="-14764.334" y1="-8904" x2="-14795.341" y2="-8904" gradientTransform="matrix(-1 0 0 -1 -14476 -8274)"><stop offset="0" stop-color="#F6F5F3" stop-opacity="0"/><stop offset="1" stop-color="#F6F5F3"/></linearGradient><path fill="url(#a)" d="M287 616l33-8v36l-33 8z"/><linearGradient id="b" gradientUnits="userSpaceOnUse" x1="318.666" y1="4.001" x2="287.659" y2="4.001" gradientTransform="translate(-287 645.999)"><stop offset="0" stop-color="#F6F5F3" stop-opacity="0"/><stop offset=".944" stop-color="#F6F5F3"/></linearGradient><path fill="url(#b)" d="M0 628h33v44h-33z"/><linearGradient id="c" gradientUnits="userSpaceOnUse" x1="318.666" y1="-449.832" x2="287.659" y2="-449.832" gradientTransform="translate(-287 645.999)"><stop offset="0" stop-color="#F6F5F3" stop-opacity="0"/><stop offset=".944" stop-color="#F6F5F3"/></linearGradient><path fill="url(#c)" d="M0 181.333h33v29.667h-33z"/><linearGradient id="d" gradientUnits="userSpaceOnUse" x1="-2375" y1="-12513.834" x2="-2406.007" y2="-12513.834" gradientTransform="matrix(0 1 -1 0 -12283.332 2410.666)"><stop offset="0" stop-color="#F6F5F3" stop-opacity="0"/><stop offset=".944" stop-color="#F6F5F3"/></linearGradient><path fill="url(#d)" d="M215.668 4h29.666v33h-29.666z"/><text transform="matrix(0 1 -1 0 227 14.016)" fill="#A99283" font-family="'Geometria'" font-size="12">← Море</text><text transform="translate(21.387 200.427)" fill="#A99283" font-family="'Geometria'" font-size="12">← Газпром</text><path d="M170 649.611c17.459-.244 34.785-1.279 50.546-3.03 14.612-1.623 86.993-17.009 99.454-19.338" fill="none"/><text transform="matrix(.996 -.088 .088 .996 206.9 650.912)"><tspan x="0" y="0" fill="#A99283" font-family="'Geometria'" font-size="12">З</tspan><tspan x="7.512" y="-.002" fill="#A99283" font-family="'Geometria'" font-size="12" rotate="-.884">е</tspan><tspan x="14.744" y="-.087" fill="#A99283" font-family="'Geometria'" font-size="12" rotate="-3.81">л</tspan><tspan x="21.961" y="-.583" fill="#A99283" font-family="'Geometria'" font-size="12" rotate="-5.02">е</tspan><tspan x="28.807" y="-1.187" fill="#A99283" font-family="'Geometria'" font-size="12" rotate="-5.546">н</tspan><tspan x="36.1" y="-1.897" fill="#A99283" font-family="'Geometria'" font-size="12" rotate="-5.862">о</tspan><tspan x="43.525" y="-2.661" fill="#A99283" font-family="'Geometria'" font-size="12" rotate="-6.053">г</tspan><tspan x="49.304" y="-3.273" fill="#A99283" font-family="'Geometria'" font-size="12" rotate="-6.194">р</tspan><tspan x="56.889" y="-4.097" fill="#A99283" font-family="'Geometria'" font-size="12" rotate="-6.31">а</tspan><tspan x="63.986" y="-4.881" fill="#A99283" font-family="'Geometria'" font-size="12" rotate="-6.397">д</tspan><tspan x="71.704" y="-5.747" fill="#A99283" font-family="'Geometria'" font-size="12" rotate="-6.459">с</tspan><tspan x="77.972" y="-6.458" fill="#A99283" font-family="'Geometria'" font-size="12" rotate="-6.499">к</tspan><tspan x="87.578" y="-7.553" fill="#A99283" font-family="'Geometria'" font-size="12" rotate="-6.528">→</tspan></text><path fill="none" d="M0 649.666h151"/><text transform="translate(20.001 652.667)"><tspan x="0" y="0" fill="#A99283" font-family="'Geometria'" font-size="12">←</tspan><tspan x="11.866" y="0" fill="#A99283" font-family="'Geometria'" font-size="12">К</tspan><tspan x="19.782" y="0" fill="#A99283" font-family="'Geometria'" font-size="12">а</tspan><tspan x="26.917" y="0" fill="#A99283" font-family="'Geometria'" font-size="12">л</tspan><tspan x="34.105" y="0" fill="#A99283" font-family="'Geometria'" font-size="12">и</tspan><tspan x="41.521" y="0" fill="#A99283" font-family="'Geometria'" font-size="12">н</tspan><tspan x="48.861" y="0" fill="#A99283" font-family="'Geometria'" font-size="12">и</tspan><tspan x="56.283" y="0" fill="#A99283" font-family="'Geometria'" font-size="12">н</tspan><tspan x="63.62" y="0" fill="#A99283" font-family="'Geometria'" font-size="12">г</tspan><tspan x="69.451" y="0" fill="#A99283" font-family="'Geometria'" font-size="12">р</tspan><tspan x="77.076" y="0" fill="#A99283" font-family="'Geometria'" font-size="12">а</tspan><tspan x="84.194" y="0" fill="#A99283" font-family="'Geometria'" font-size="12">д</tspan></text></svg>