<svg xmlns="http://www.w3.org/2000/svg" width="322" height="660" viewBox="0 0 322 660"><g stroke="#F6F5F3" stroke-width="2" stroke-miterlimit="2"><path fill="#F88433" d="M61.143 519.8h42.945v78.479h-42.945z"/><path fill="#EAE4DF" d="M21.904 305.751h62.313v55.071999999999996h-10.106l-8.925-7.579h-43.282zM234.606 391.639h16.671l9.937 9.263 40.786.169v32.336h-67.394zM21.904 207.57l54.061-.338v19.199l.842 9.599 2.693 9.937 4.547 9.094 4.043 5.725 4.885 5.221-8.59 6.568-.168 33.176h-62.313zM21.904 8.006h123.276v71.405h-14.651l-10.442 1.008-10.107 3.033-9.261 4.884-5.725 4.546-17.177-17.176h-55.913zM251.277 360.823l10.106-8.589h40.617v48.837l-40.786-.169-9.937-9.263zM178.019 391.639h56.587v41.768h-56.587zM220.795 433.407h42.775v55.069h-42.775z"/><path fill="#F88433" d="M178.019 519.8h38.231l.168 76.2-38.399 2.279zM259.361 519.8h21.893v-15.833h20.746v76.122l-42 7.911z"/><path fill="#EAE4DF" d="M263.57 433.407h38.43v70.56h-20.746v-15.491h-17.684z"/><path fill="#995426" d="M216.25 519.8h43.111l.639 68.2-43.582 8z"/><path fill="#F88433" d="M21.904 503.967h22.061v15.833h17.178v78.479h-39.239z"/><path fill="#EAE4DF" d="M104.088 519.8h43.113v78.479h-43.113zM21.904 433.407h36.714v55.069h-14.653v15.491h-22.061zM88.426 391.639h58.775v41.768h-58.775zM104.088 433.407h43.113v55.069h-43.113zM58.618 433.407h45.47v55.069h-45.47zM84.217 318.718h62.984v42.105h-62.984zM21.904 353.244h43.282l8.925 7.579v30.816l-8.925 8.421h-43.282zM92.975 266.007l8.252 6.398 8.587 4.379 9.934 3.034 10.275 1.009h17.178v37.891h-62.984v-12.967l.168-33.176zM21.904 400.06h43.282l8.925-8.421h14.315v41.768h-66.52199999999999zM21.904 75.706h55.913l17.177 17.176-2.356 2.193-4.717 5.217-5.557 8.76-3.874 9.764-2.525 10.274v47.324l-54.061-.168zM217 43.667v-35.667h-71v71h71zM178.019 318.718h57.261v42.105h-57.261zM235.279 318.718h66.721v33.516h-40.617l-10.106 8.589h-15.998zM302 274.148v-56.147999999999996h-55v8.343l-.641 8.042-2.593 10.254-2.897 6.644-5.572 8.792-4.726 5.239-2.53 2.368-8.591 6.066-12.968 4.812-13.812 1.44h-14.67v39h124zM302 165.717v-52.717h-55v105h55zM178.019 433.407h42.776v55.069h-42.776zM302 81.431v-73.431h-55v105h55zM88.426 391.639h58.775v41.768h-58.775zM21.904 400.06h43.282l8.925-8.421h14.315v41.768h-66.52199999999999zM130.697 109.892l86.394.168v116.707l-3.031 9.094-5.22 7.411-8.927 5.389-7.243 1.18h-62.647l-8.757-1.685-8.253-5.725-5.051-8.926-1.011-6.906v-93.298l2.358-8.926 5.051-7.411 8.759-5.725z"/></g><text transform="translate(112.984 460.11)"><tspan x="0" y="0" fill="#A99283" font-family="'Geometria'" font-size="16.177">6.8</tspan><tspan x="-3.305" y="15" fill="#A99283" font-family="'Geometria'" font-size="10.111">млн. ₷</tspan></text><text transform="translate(68.894 459.934)"><tspan x="0" y="0" fill="#A99283" font-family="'Geometria'" font-size="16.177">7.0</tspan><tspan x="-3.507" y="15" fill="#A99283" font-family="'Geometria'" font-size="10.111">млн. ₷</tspan></text><text transform="translate(27.043 460.109)"><tspan x="0" y="0" fill="#A99283" font-family="'Geometria'" font-size="16.177">6.8</tspan><tspan x="-3.305" y="15" fill="#A99283" font-family="'Geometria'" font-size="10.111">млн. ₷</tspan></text><text transform="translate(24.938 423.827)"><tspan x="0" y="0" fill="#A99283" font-family="'Geometria'" font-size="16.177">6.8</tspan><tspan x="28.893" y="0" fill="#A99283" font-family="'Geometria'" font-size="10.111">млн. ₷</tspan></text><text transform="translate(106.972 410.228)"><tspan x="0" y="0" fill="#A99283" font-family="'Geometria'" font-size="16.177">7.2</tspan><tspan x="-4.583" y="15" fill="#A99283" font-family="'Geometria'" font-size="10.111">млн. ₷</tspan></text><text transform="translate(104.498 339.413)"><tspan x="0" y="0" fill="#A99283" font-family="'Geometria'" font-size="16.177">7.4</tspan><tspan x="-4.114" y="15" fill="#A99283" font-family="'Geometria'" font-size="10.111">млн. ₷</tspan></text><text transform="translate(195.691 410.228)"><tspan x="0" y="0" fill="#A99283" font-family="'Geometria'" font-size="16.177">6.8</tspan><tspan x="-3.305" y="15" fill="#A99283" font-family="'Geometria'" font-size="10.111">млн. ₷</tspan></text><text transform="translate(257.921 57.519)"><tspan x="0" y="0" fill="#A99283" font-family="'Geometria'" font-size="16.177">30.5</tspan><tspan x="1.467" y="15" fill="#A99283" font-family="'Geometria'" font-size="10.111">млн. ₷</tspan></text><text transform="translate(164.648 42.138)"><tspan x="0" y="0" fill="#A99283" font-family="'Geometria'" font-size="16.177">29.5</tspan><tspan x=".958" y="15" fill="#A99283" font-family="'Geometria'" font-size="10.111">млн. ₷</tspan></text><text transform="translate(257.921 162.673)"><tspan x="0" y="0" fill="#A99283" font-family="'Geometria'" font-size="16.177">30.5</tspan><tspan x="1.467" y="15" fill="#A99283" font-family="'Geometria'" font-size="10.111">млн. ₷</tspan></text><text transform="translate(248.665 280.465)"><tspan x="0" y="0" fill="#A99283" font-family="'Geometria'" font-size="16.177">34.5</tspan><tspan x=".86" y="15" fill="#A99283" font-family="'Geometria'" font-size="10.111">млн. ₷</tspan></text><text transform="translate(238.035 423.827)"><tspan x="0" y="0" fill="#A99283" font-family="'Geometria'" font-size="16.177">6.4</tspan><tspan x="28.698" y="0" fill="#A99283" font-family="'Geometria'" font-size="10.111">млн. ₷</tspan></text><text transform="translate(237.938 340.49)"><tspan x="0" y="0" fill="#A99283" font-family="'Geometria'" font-size="16.177">6.8</tspan><tspan x="28.893" y="0" fill="#A99283" font-family="'Geometria'" font-size="10.111">млн. ₷</tspan></text><text transform="translate(103.438 299.306)"><tspan x="0" y="0" fill="#A99283" font-family="'Geometria'" font-size="16.177">7.9</tspan><tspan x="-4.049" y="15" fill="#A99283" font-family="'Geometria'" font-size="10.111">млн. ₷</tspan></text><text transform="translate(34.894 374.412)"><tspan x="0" y="0" fill="#A99283" font-family="'Geometria'" font-size="16.177">7.0</tspan><tspan x="-3.507" y="15" fill="#A99283" font-family="'Geometria'" font-size="10.111">млн. ₷</tspan></text><text transform="translate(264.726 374.412)"><tspan x="0" y="0" fill="#A99283" font-family="'Geometria'" font-size="16.177">6.6</tspan><tspan x="-3.257" y="15" fill="#A99283" font-family="'Geometria'" font-size="10.111">млн. Р</tspan></text><text transform="translate(38.756 328.412)"><tspan x="0" y="0" fill="#A99283" font-family="'Geometria'" font-size="16.177">8.4</tspan><tspan x="-3.37" y="15" fill="#A99283" font-family="'Geometria'" font-size="10.111">млн. ₷</tspan></text><text transform="translate(270.258 460.11)"><tspan x="0" y="0" fill="#A99283" font-family="'Geometria'" font-size="16.177">6.2</tspan><tspan x="-3.872" y="15" fill="#A99283" font-family="'Geometria'" font-size="10.111">млн. ₷</tspan></text><text transform="translate(228.347 459.934)"><tspan x="0" y="0" fill="#A99283" font-family="'Geometria'" font-size="16.177">6.4</tspan><tspan x="-3.402" y="15" fill="#A99283" font-family="'Geometria'" font-size="10.111">млн. ₷</tspan></text><text transform="translate(186.828 460.109)"><tspan x="0" y="0" fill="#A99283" font-family="'Geometria'" font-size="16.177">6.6</tspan><tspan x="-3.338" y="15" fill="#A99283" font-family="'Geometria'" font-size="10.111">млн. ₷</tspan></text><text transform="translate(143.957 176)"><tspan x="0" y="0" fill="#A99283" font-family="'Geometria'" font-size="16.177">45.6</tspan><tspan x="1.427" y="15" fill="#A99283" font-family="'Geometria'" font-size="10.111">млн. ₷</tspan></text><text transform="translate(67.415 43)"><tspan x="0" y="0" fill="#A99283" font-family="'Geometria'" font-size="16.177">40.5</tspan><tspan x="1.968" y="15" fill="#A99283" font-family="'Geometria'" font-size="10.111">млн. ₷</tspan></text><text transform="translate(34.102 122)"><tspan x="0" y="0" fill="#A99283" font-family="'Geometria'" font-size="16.177">39.6</tspan><tspan x="1.281" y="15" fill="#A99283" font-family="'Geometria'" font-size="10.111">млн. ₷</tspan></text><text transform="translate(34.167 254)"><tspan x="0" y="0" fill="#A99283" font-family="'Geometria'" font-size="16.177">34.6</tspan><tspan x="1.216" y="15" fill="#A99283" font-family="'Geometria'" font-size="10.111">млн. ₷</tspan></text><text transform="translate(112.54 548.749)"><tspan x="0" y="0" fill="#A99283" font-family="'Geometria'" font-size="16.177">4.0</tspan><tspan x="-2.86" y="15" fill="#A99283" font-family="'Geometria'" font-size="10.111">млн. ₷</tspan></text><text transform="translate(72.783 548.573)"><tspan x="0" y="0" font-family="'Geometria'" font-size="16.177">4.1</tspan><tspan x="-5.57" y="15" font-family="'Geometria'" font-size="10.111">млн. ₷</tspan></text><text transform="translate(29.292 548.749)"><tspan x="0" y="0" font-family="'Geometria'" font-size="16.177">3.9</tspan><tspan x="-3.904" y="15" font-family="'Geometria'" font-size="10.111">млн. ₷</tspan></text><text transform="translate(269.29 548.749)"><tspan x="0" y="0" font-family="'Geometria'" font-size="16.177">3.6</tspan><tspan x="-3.904" y="15" font-family="'Geometria'" font-size="10.111">млн. ₷</tspan></text><text transform="translate(227.26 548.413)"><tspan x="0" y="0" fill="#fff" font-family="'Geometria'" font-size="16.177">3.8</tspan><tspan x="-3.872" y="15" fill="#fff" font-family="'Geometria'" font-size="10.111">млн. ₷</tspan></text><text transform="translate(187.004 548.749)"><tspan x="0" y="0" font-family="'Geometria'" font-size="16.177">3.7</tspan><tspan x="-4.616" y="15" font-family="'Geometria'" font-size="10.111">млн. ₷</tspan></text><path fill="#EAE4DF" d="M22 604h124v21h-124zM302 586l-86 16-36.5 2v21l38.5-2 84-16z"/><path fill="#DFD3CA" d="M322 609.333c-.646.121-87.313 18.061-102.547 19.753-14.914 1.657-43.956 2.715-43.956 2.715-2.198.08-3.997-1.655-3.997-3.854v-110.447c0-2.2 1.8-4 4-4h95.5c2.2 0 4-1.8 4-4v-11c0-2.2-1.8-4-4-4h-95.5c-2.2 0-4-1.8-4-4v-101c0-2.2 1.8-4 4-4h64.5c2.2 0 4-1.8 4-4v-11c0-2.2-1.8-4-4-4h-64.5c-2.2 0-4-1.8-4-4v-84c0-2.2 1.8-4 4-4h19.5c25.64 0 46.5-22.655 46.5-50.5v-219c0-2.2-1.8-4-4-4h-11c-2.2 0-4 1.8-4 4v76.5c0 2.2-1.8 4-4 4h-87.5c-30.359 0-48.5 24.151-48.5 47.5v45.5c0 2.2-1.8 4-4 4h-72.168c-2.2 0-4 1.8-4 4v11c0 2.2 1.8 4 4 4h72.168c2.2 0 4 1.8 4 4v20.5c0 27.65 20.85 48.5 48.5 48.5h17.5c2.2 0 4 1.8 4 4v84c0 2.2-1.8 4-4 4h-64.5c-2.2 0-4 1.8-4 4v11c0 2.2 1.8 4 4 4h64.5c2.2 0 4 1.8 4 4v101c0 2.2-1.8 4-4 4h-93.5c-2.2 0-4 1.8-4 4v11c0 2.2 1.8 4 4 4h93.5c2.2 0 4 1.8 4 4v110.5c0 2.2-1.8 4-4 4h-142.5c-2.2 0-4 1.8-4 4v20c0 2.2 1.8 4 4 4h154c2.2 0 5.8-.048 7.999-.105 0 0 36.379-.961 54.546-2.981 14.612-1.623 86.994-17.009 99.455-19.337m-220.5-411.577v-93c0-11.019 8.008-28.5 29.5-28.5h87.5c2.2 0 4 1.8 4 4v115.5c0 19.457-14.275 31.5-27.5 31.5h-64c-17.369 0-29.5-12.131-29.5-29.5z"/><path stroke="#D0BEB1" stroke-width="2" stroke-miterlimit="10" d="M322 609.333c-.646.121-87.313 18.061-102.547 19.753-14.914 1.657-43.956 2.715-43.956 2.715-2.198.08-3.997-1.655-3.997-3.854v-110.447c0-2.2 1.8-4 4-4h95.5c2.2 0 4-1.8 4-4v-11c0-2.2-1.8-4-4-4h-95.5c-2.2 0-4-1.8-4-4v-101c0-2.2 1.8-4 4-4h64.5c2.2 0 4-1.8 4-4v-11c0-2.2-1.8-4-4-4h-64.5c-2.2 0-4-1.8-4-4v-84c0-2.2 1.8-4 4-4h19.5c25.64 0 46.5-22.655 46.5-50.5v-219c0-2.2-1.8-4-4-4h-11c-2.2 0-4 1.8-4 4v76.5c0 2.2-1.8 4-4 4h-87.5c-30.359 0-48.5 24.151-48.5 47.5v45.5c0 2.2-1.8 4-4 4h-72.168c-2.2 0-4 1.8-4 4v11c0 2.2 1.8 4 4 4h72.168c2.2 0 4 1.8 4 4v20.5c0 27.65 20.85 48.5 48.5 48.5h17.5c2.2 0 4 1.8 4 4v84c0 2.2-1.8 4-4 4h-64.5c-2.2 0-4 1.8-4 4v11c0 2.2 1.8 4 4 4h64.5c2.2 0 4 1.8 4 4v101c0 2.2-1.8 4-4 4h-93.5c-2.2 0-4 1.8-4 4v11c0 2.2 1.8 4 4 4h93.5c2.2 0 4 1.8 4 4v110.5c0 2.2-1.8 4-4 4h-142.5c-2.2 0-4 1.8-4 4v20c0 2.2 1.8 4 4 4h154c2.2 0 5.8-.048 7.999-.105 0 0 36.379-.961 54.546-2.981 14.612-1.623 86.994-17.009 99.455-19.337m-220.5-411.577v-93c0-11.019 8.008-28.5 29.5-28.5h87.5c2.2 0 4 1.8 4 4v115.5c0 19.457-14.275 31.5-27.5 31.5h-64c-17.369 0-29.5-12.131-29.5-29.5z" fill="none"/><linearGradient id="a" gradientUnits="userSpaceOnUse" x1="-12240.334" y1="-6773.999" x2="-12271.341" y2="-6773.999" gradientTransform="matrix(-1 0 0 -1 -11950 -6148.001)"><stop offset="0" stop-color="#F6F5F3" stop-opacity="0"/><stop offset="1" stop-color="#F6F5F3"/></linearGradient><path fill="url(#a)" d="M289 612l33-8v36l-33 8z"/><linearGradient id="b" gradientUnits="userSpaceOnUse" x1="320.666" x2="289.659" gradientTransform="translate(-287 645.999)"><stop offset="0" stop-color="#F6F5F3" stop-opacity="0"/><stop offset=".944" stop-color="#F6F5F3"/></linearGradient><path fill="url(#b)" d="M2 624h33v44h-33z"/><linearGradient id="c" gradientUnits="userSpaceOnUse" x1="320.666" y1="-453.832" x2="289.659" y2="-453.832" gradientTransform="translate(-287 645.999)"><stop offset="0" stop-color="#F6F5F3" stop-opacity="0"/><stop offset=".944" stop-color="#F6F5F3"/></linearGradient><path fill="url(#c)" d="M2 177.333h33v29.667h-33z"/><linearGradient id="d" gradientUnits="userSpaceOnUse" x1="-2179.001" y1="-10189.834" x2="-2210.008" y2="-10189.834" gradientTransform="matrix(0 1 -1 0 -9957.332 2210.667)"><stop offset="0" stop-color="#F6F5F3" stop-opacity="0"/><stop offset=".944" stop-color="#F6F5F3"/></linearGradient><path fill="url(#d)" d="M217.668 0h29.666v33h-29.666z"/><text transform="matrix(0 1 -1 0 229 10.016)" fill="#A99283" font-family="'Geometria'" font-size="12">← Море</text><text transform="translate(23.387 196.426)" fill="#A99283" font-family="'Geometria'" font-size="12">← Газпром</text><path d="M172 645.611c17.459-.244 34.785-1.278 50.546-3.029 14.612-1.624 86.993-17.009 99.454-19.338" fill="none"/><text transform="matrix(.996 -.088 .088 .996 208.899 646.912)"><tspan x="0" y="0" fill="#A99283" font-family="'Geometria'" font-size="12">З</tspan><tspan x="7.512" y="-.002" fill="#A99283" font-family="'Geometria'" font-size="12" rotate="-.884">е</tspan><tspan x="14.744" y="-.087" fill="#A99283" font-family="'Geometria'" font-size="12" rotate="-3.81">л</tspan><tspan x="21.961" y="-.583" fill="#A99283" font-family="'Geometria'" font-size="12" rotate="-5.02">е</tspan><tspan x="28.807" y="-1.187" fill="#A99283" font-family="'Geometria'" font-size="12" rotate="-5.546">н</tspan><tspan x="36.1" y="-1.896" fill="#A99283" font-family="'Geometria'" font-size="12" rotate="-5.862">о</tspan><tspan x="43.525" y="-2.661" fill="#A99283" font-family="'Geometria'" font-size="12" rotate="-6.053">г</tspan><tspan x="49.304" y="-3.273" fill="#A99283" font-family="'Geometria'" font-size="12" rotate="-6.194">р</tspan><tspan x="56.889" y="-4.097" fill="#A99283" font-family="'Geometria'" font-size="12" rotate="-6.31">а</tspan><tspan x="63.986" y="-4.881" fill="#A99283" font-family="'Geometria'" font-size="12" rotate="-6.397">д</tspan><tspan x="71.704" y="-5.747" fill="#A99283" font-family="'Geometria'" font-size="12" rotate="-6.459">с</tspan><tspan x="77.972" y="-6.457" fill="#A99283" font-family="'Geometria'" font-size="12" rotate="-6.499">к</tspan><tspan x="87.578" y="-7.553" fill="#A99283" font-family="'Geometria'" font-size="12" rotate="-6.528">→</tspan></text><path fill="none" d="M2 645.667h151"/><text transform="translate(22 648.667)"><tspan x="0" y="0" fill="#A99283" font-family="'Geometria'" font-size="12">←</tspan><tspan x="11.866" y="0" fill="#A99283" font-family="'Geometria'" font-size="12">К</tspan><tspan x="19.782" y="0" fill="#A99283" font-family="'Geometria'" font-size="12">а</tspan><tspan x="26.917" y="0" fill="#A99283" font-family="'Geometria'" font-size="12">л</tspan><tspan x="34.105" y="0" fill="#A99283" font-family="'Geometria'" font-size="12">и</tspan><tspan x="41.521" y="0" fill="#A99283" font-family="'Geometria'" font-size="12">н</tspan><tspan x="48.861" y="0" fill="#A99283" font-family="'Geometria'" font-size="12">и</tspan><tspan x="56.283" y="0" fill="#A99283" font-family="'Geometria'" font-size="12">н</tspan><tspan x="63.62" y="0" fill="#A99283" font-family="'Geometria'" font-size="12">г</tspan><tspan x="69.451" y="0" fill="#A99283" font-family="'Geometria'" font-size="12">р</tspan><tspan x="77.076" y="0" fill="#A99283" font-family="'Geometria'" font-size="12">а</tspan><tspan x="84.194" y="0" fill="#A99283" font-family="'Geometria'" font-size="12">д</tspan></text><text transform="translate(194.498 339.413)"><tspan x="0" y="0" fill="#A99283" font-family="'Geometria'" font-size="16.177">7.4</tspan><tspan x="-4.114" y="15" fill="#A99283" font-family="'Geometria'" font-size="10.111">млн. ₷</tspan></text></svg>