<svg xmlns="http://www.w3.org/2000/svg" width="1016.553" height="436.15" viewBox="0 0 1016.553 436.15"><g stroke="#F6F5F3" stroke-width="2" stroke-miterlimit="2"><path fill="#F88433" d="M795.909 308.502h121.891v66.702h-121.891z"/><path fill="#EAE4DF" d="M463.45 436.15v-96.783h85.536v15.695l-11.77 13.865v67.223zM596.851 105.783v-25.893l14.388-15.433.261-63.347h50.223v104.673zM310.958 436.15l-.524-83.966h29.817l14.909-1.309 15.436-4.183 14.123-7.063 8.893-6.279 8.109-7.585 10.201 13.341 51.528.261v96.783zM1 436.15v-191.47h110.903v22.753l1.565 16.22 4.713 15.696 7.584 14.386 7.061 8.892-26.678 26.679v86.844zM548.986 79.89l-13.341-15.695v-63.085h75.855l-.261 63.347-14.388 15.433zM596.851 193.675v-87.892h64.872v87.892zM661.723 127.235v-66.44h85.533v66.44zM795.909 193.675v-59.38l118.351-.26 3.54 59.64z"/><path fill="#F88433" d="M795.909 67.333v-34.001h-24.591v-32.222h118.231l12.288 65.233z"/><path fill="#EAE4DF" d="M661.723 60.795v-59.685h109.595v32.222h-24.062v27.463z"/><path fill="#F88433" d="M795.909 134.295v-66.962l105.928-.99 12.423 67.692zM771.318 436.15v-34.265h24.591v-26.681h121.891v60.946z"/><path fill="#995426" d="M795.909 241.54h121.891v66.962h-121.891z"/><path fill="#EAE4DF" d="M661.723 436.15v-57.025h85.533v22.76h24.062v34.265zM596.851 332.829v-91.289h64.872v91.289zM661.723 241.54h85.533v66.962h-85.533zM661.723 379.125v-70.623h85.533v70.623zM483.589 241.54h65.396v97.827h-65.396zM537.216 436.15v-67.223l11.77-13.865h47.865l13.079 13.865v67.223zM401.721 325.765l9.935-12.817 6.804-13.34 4.711-15.429 1.568-15.958v-26.681h58.85v97.827h-20.139l-51.528-.261zM609.93 436.15v-67.223l-13.079-13.865v-22.233h64.872v103.321z"/><path fill="#A99283" d="M106.148 436.15v-86.844l26.678-26.679 3.407 3.66 8.104 7.326 13.605 8.631 15.163 6.017 15.958 3.923h73.502l-.259 83.966z"/><path fill="#EAE4DF" d="M56.387 131h-54.387v111h110v-111zM483.589 104.738h65.396v88.937h-65.396zM483.589 104.738v-103.628h52.056v63.085l13.341 15.695v24.848zM414.365 1h-85.365v86h11.116l12.491.761 15.925 3.912 10.319 4.44 13.657 8.628 8.137 7.325 3.677 3.92 9.423 13.341 7.746 20.14 2.509 21.451v23.082h61v-193zM245.952 1h-83.952v86h167v-86zM661.723 127.235h85.533v66.439h-85.533zM115.041 1h-113.041v86h160v-86zM596.851 332.829v-91.289h64.872v91.289zM609.93 436.15v-67.223l-13.079-13.865v-22.233h64.872v103.321zM159.245 267.173l.261-134.184h181.268l14.125 4.708 11.511 8.107 8.37 13.866 1.832 11.248v97.303l-2.616 13.602-8.894 12.818-13.862 7.845-10.727 1.57h-144.91l-13.861-3.662-11.512-7.846-8.893-13.603z"/></g><path fill="#EAE4DF" d="M926.688 243.407h32.616v192.594h-32.616zM898.729 1.11l24.851 133.574 3.108 56.69h32.616l-3.106-59.796-24.851-130.468z"/><path fill="#DFD3CA" d="M941.248 2.134c.187 1.004 21.772 103.524 24.402 127.185 2.573 23.166 4.296 70.485 4.296 70.485.08 2.199-1.654 3.998-3.854 3.998h-175.969c-2.2 0-4-1.8-4-4v-152.756c0-2.2-1.8-4-4-4h-21.511c-2.2 0-4 1.8-4 4v152.755c0 2.2-1.8 4-4 4h-161.295c-2.2 0-4-1.8-4-4v-104.607c0-2.2-1.8-4-4-4h-21.511c-2.2 0-4 1.8-4 4v104.606c0 2.2-1.8 4-4 4h-134.893c-2.2 0-4-1.8-4-4v-32.5c0-39.823-35.188-72.222-78.437-72.222h-328.846c-2.2 0-4 1.8-4 4v21.51c0 2.2 1.8 4 4 4h109.73c2.2 0 4 1.8 4 4v138.116c0 47.152 37.51 75.329 73.775 75.329h72.882c2.2 0 4 1.8 4 4v86.123c0 2.2 1.8 4 4 4h21.511c2.2 0 4-1.8 4-4v-86.123c0-2.2 1.8-4 4-4h34.053c42.946 0 75.33-32.383 75.33-75.329v-29.394c0-2.2 1.8-4 4-4h134.894c2.2 0 4 1.8 4 4v104.605c0 2.2 1.8 4 4 4h21.511c2.2 0 4-1.8 4-4v-104.604c0-2.2 1.8-4 4-4h161.295c2.2 0 4 1.8 4 4v149.648c0 2.2 1.8 4 4 4h21.511c2.2 0 4-1.8 4-4v-149.648c0-2.2 1.8-4 4-4h176.053c2.2 0 4 1.8 4 4v194.846c0 2.2 1.8 4 4 4h35.489c2.2 0 4-1.8 4-4v-212.708c0-2.2-.047-5.799-.105-7.999 0 0-1.549-58.716-4.688-86.933-2.521-22.696-20.14-103.029-23.757-122.384m-645.531 310.39h-144.446c-17.113 0-44.266-12.439-44.266-45.819v-138.116c0-2.2 1.8-4 4-4h181.605c30.22 0 48.926 22.17 48.926 42.712v99.404c0 26.978-18.842 45.819-45.819 45.819z"/><path stroke="#D0BEB1" stroke-width="2" stroke-miterlimit="10" d="M941.248 2.134c.187 1.004 21.772 103.524 24.402 127.185 2.573 23.166 4.296 70.485 4.296 70.485.08 2.199-1.654 3.998-3.854 3.998h-175.969c-2.2 0-4-1.8-4-4v-152.756c0-2.2-1.8-4-4-4h-21.511c-2.2 0-4 1.8-4 4v152.755c0 2.2-1.8 4-4 4h-161.295c-2.2 0-4-1.8-4-4v-104.607c0-2.2-1.8-4-4-4h-21.511c-2.2 0-4 1.8-4 4v104.606c0 2.2-1.8 4-4 4h-134.893c-2.2 0-4-1.8-4-4v-32.5c0-39.823-35.188-72.222-78.437-72.222h-328.846c-2.2 0-4 1.8-4 4v21.51c0 2.2 1.8 4 4 4h109.73c2.2 0 4 1.8 4 4v138.116c0 47.152 37.51 75.329 73.775 75.329h72.882c2.2 0 4 1.8 4 4v86.123c0 2.2 1.8 4 4 4h21.511c2.2 0 4-1.8 4-4v-86.123c0-2.2 1.8-4 4-4h34.053c42.946 0 75.33-32.383 75.33-75.329v-29.394c0-2.2 1.8-4 4-4h134.894c2.2 0 4 1.8 4 4v104.605c0 2.2 1.8 4 4 4h21.511c2.2 0 4-1.8 4-4v-104.604c0-2.2 1.8-4 4-4h161.295c2.2 0 4 1.8 4 4v149.648c0 2.2 1.8 4 4 4h21.511c2.2 0 4-1.8 4-4v-149.648c0-2.2 1.8-4 4-4h176.053c2.2 0 4 1.8 4 4v194.846c0 2.2 1.8 4 4 4h35.489c2.2 0 4-1.8 4-4v-212.708c0-2.2-.047-5.799-.105-7.999 0 0-1.549-58.716-4.688-86.933-2.521-22.696-20.14-103.029-23.757-122.384m-645.531 310.39h-144.446c-17.113 0-44.266-12.439-44.266-45.819v-138.116c0-2.2 1.8-4 4-4h181.605c30.22 0 48.926 22.17 48.926 42.712v99.404c0 26.978-18.842 45.819-45.819 45.819z" fill="none"/><linearGradient id="a" gradientUnits="userSpaceOnUse" x1="-10117.067" y1="3117.464" x2="-10165.228" y2="3117.464" gradientTransform="matrix(0 -1 1 0 -2125.449 -9727.711)"><stop offset="0" stop-color="#F6F5F3" stop-opacity="0"/><stop offset=".944" stop-color="#F6F5F3"/></linearGradient><path fill="url(#a)" d="M967.479 387.285h49.074v51.255h-49.074z"/><linearGradient id="b" gradientUnits="userSpaceOnUse" x1="-10111.68" y1="2412.481" x2="-10163.949" y2="2412.481" gradientTransform="matrix(0 -1 1 0 -2125.449 -9727.711)"><stop offset="0" stop-color="#F6F5F3" stop-opacity="0"/><stop offset=".944" stop-color="#F6F5F3"/></linearGradient><path fill="url(#b)" d="M263.994 381.72h46.078v55.629h-46.078z"/><linearGradient id="c" gradientUnits="userSpaceOnUse" x1="611.624" y1="166.434" x2="563.463" y2="166.434" gradientTransform="translate(-560.78 -57.379)"><stop offset="0" stop-color="#F6F5F3" stop-opacity="0"/><stop offset=".944" stop-color="#F6F5F3"/></linearGradient><path fill="url(#c)" d="M1.659 86.016h51.256v46.077h-51.256z"/><linearGradient id="d" gradientUnits="userSpaceOnUse" x1="-1886.356" y1="-9888.529" x2="-1934.518" y2="-9888.529" gradientTransform="matrix(0 1 -1 0 -8919.449 1935.289)"><stop offset="0" stop-color="#F6F5F3" stop-opacity="0"/><stop offset="1" stop-color="#F6F5F3"/></linearGradient><path fill="url(#d)" d="M947.334 51.005l-12.424-51.257h55.913l12.427 51.257z"/><linearGradient id="e" gradientUnits="userSpaceOnUse" x1="-10111.68" y1="2412.481" x2="-10163.949" y2="2412.481" gradientTransform="matrix(0 -1 1 0 -2125.449 -9727.711)"><stop offset="0" stop-color="#F6F5F3" stop-opacity="0"/><stop offset=".944" stop-color="#F6F5F3"/></linearGradient><path fill="url(#e)" d="M263.994 381.72h46.078v55.629h-46.078z"/><linearGradient id="f" gradientUnits="userSpaceOnUse" x1="611.624" y1="166.434" x2="563.463" y2="166.434" gradientTransform="translate(-560.78 -57.379)"><stop offset="0" stop-color="#F6F5F3" stop-opacity="0"/><stop offset=".944" stop-color="#F6F5F3"/></linearGradient><path fill="url(#f)" d="M1.659 86.016h51.256v46.077h-51.256z"/><text transform="translate(12.617 114.494)" fill="#A99283" font-family="'Geometria'" font-size="14">← Море</text><text transform="matrix(0 -1 1 0 293.65 421.63)" fill="#A99283" font-family="'Geometria'" font-size="14">← Газпром</text><path d="M991.315 203.023c-.379-27.117-1.986-54.026-4.706-78.506-2.521-22.696-20.283-101.838-23.899-121.19" fill="none"/><text transform="matrix(-.103 -.995 .995 -.103 992.241 133.486)"><tspan x="0" y="0" fill="#A99283" font-family="'Geometria'" font-size="14">З</tspan><tspan x="9.086" y=".04" fill="#A99283" font-family="'Geometria'" font-size="14" rotate="-2.014">е</tspan><tspan x="17.221" y="-.264" fill="#A99283" font-family="'Geometria'" font-size="14" rotate="-3.696">л</tspan><tspan x="25.642" y="-.815" fill="#A99283" font-family="'Geometria'" font-size="14" rotate="-4.48">е</tspan><tspan x="33.634" y="-1.442" fill="#A99283" font-family="'Geometria'" font-size="14" rotate="-4.957">н</tspan><tspan x="42.179" y="-2.185" fill="#A99283" font-family="'Geometria'" font-size="14" rotate="-5.291">о</tspan><tspan x="50.828" y="-2.989" fill="#A99283" font-family="'Geometria'" font-size="14" rotate="-5.507">г</tspan><tspan x="57.596" y="-3.64" fill="#A99283" font-family="'Geometria'" font-size="14" rotate="-5.674">р</tspan><tspan x="66.456" y="-4.521" fill="#A99283" font-family="'Geometria'" font-size="14" rotate="-5.813">а</tspan><tspan x="74.737" y="-5.364" fill="#A99283" font-family="'Geometria'" font-size="14" rotate="-5.915">д</tspan><tspan x="83.763" y="-6.3" fill="#A99283" font-family="'Geometria'" font-size="14" rotate="-5.981">с</tspan><tspan x="91.063" y="-7.066" fill="#A99283" font-family="'Geometria'" font-size="14" rotate="-6.016">к</tspan><tspan x="102.282" y="-8.25" fill="#A99283" font-family="'Geometria'" font-size="14" rotate="-6.008">→</tspan></text><path fill="none" d="M991.401 434.964v-202.429"/><text transform="matrix(0 -1 1 0 996.061 412.863)"><tspan x="0" y="0" fill="#A99283" font-family="'Geometria'" font-size="14">←</tspan><tspan x="13.841" y="0" fill="#A99283" font-family="'Geometria'" font-size="14">К</tspan><tspan x="23.099" y="0" fill="#A99283" font-family="'Geometria'" font-size="14">а</tspan><tspan x="31.402" y="0" fill="#A99283" font-family="'Geometria'" font-size="14">л</tspan><tspan x="39.821" y="0" fill="#A99283" font-family="'Geometria'" font-size="14">и</tspan><tspan x="48.46" y="0" fill="#A99283" font-family="'Geometria'" font-size="14">н</tspan><tspan x="57.004" y="0" fill="#A99283" font-family="'Geometria'" font-size="14">и</tspan><tspan x="65.674" y="0" fill="#A99283" font-family="'Geometria'" font-size="14">н</tspan><tspan x="74.243" y="0" fill="#A99283" font-family="'Geometria'" font-size="14">г</tspan><tspan x="80.996" y="0" fill="#A99283" font-family="'Geometria'" font-size="14">р</tspan><tspan x="89.918" y="0" fill="#A99283" font-family="'Geometria'" font-size="14">а</tspan><tspan x="98.215" y="0" fill="#A99283" font-family="'Geometria'" font-size="14">д</tspan></text><text transform="translate(118.958 389.489)"><tspan x="0" y="0" fill="#F6F5F3" font-family="'Geometria'" font-size="14">№2</tspan><tspan x="0" y="16" fill="#F6F5F3" font-family="'Geometria'" font-size="14">2300</tspan><tspan x="39.564" y="16" fill="#F6F5F3" font-family="'Geometria'" font-size="12">м²</tspan><tspan x="0" y="32" fill="#F6F5F3" font-family="'Geometria'" font-size="14">34.5</tspan><tspan x="32.214" y="32" fill="#F6F5F3" font-family="'Geometria'" font-size="12">млн. ₷</tspan></text><text transform="translate(806.852 392.993)"><tspan x="0" y="0" font-family="'Geometria'" font-size="14">№30</tspan><tspan x="0" y="16" font-family="'Geometria'" font-size="14">290</tspan><tspan x="30.632" y="16" font-family="'Geometria'" font-size="12">м²</tspan><tspan x="0" y="32" font-family="'Geometria'" font-size="14">3.9</tspan><tspan x="23.968" y="32" font-family="'Geometria'" font-size="12">млн. ₷</tspan></text><text transform="translate(806.852 331.094)"><tspan x="0" y="0" font-family="'Geometria'" font-size="14">№29</tspan><tspan x="0" y="16" font-family="'Geometria'" font-size="14">280</tspan><tspan x="30.688" y="16" font-family="'Geometria'" font-size="12">м²</tspan><tspan x="0" y="32" font-family="'Geometria'" font-size="14">4.1</tspan><tspan x="21.084" y="32" font-family="'Geometria'" font-size="12">млн. ₷</tspan></text><text transform="translate(806.852 151.237)"><tspan x="0" y="0" fill="#A99283" font-family="'Geometria'" font-size="14">№27</tspan><tspan x="0" y="16" fill="#A99283" font-family="'Geometria'" font-size="14">250 м²</tspan><tspan x="0" y="32" fill="#A99283" font-family="'Geometria'" font-size="14">3.7 млн. ₷</tspan></text><text transform="translate(806.852 89.338)"><tspan x="0" y="0" font-family="'Geometria'" font-size="14">№26</tspan><tspan x="0" y="16" font-family="'Geometria'" font-size="14">260</tspan><tspan x="30.632" y="16" font-family="'Geometria'" font-size="12">м²</tspan><tspan x="0" y="32" font-family="'Geometria'" font-size="14">3.8</tspan><tspan x="24.024" y="32" font-family="'Geometria'" font-size="12">млн. ₷</tspan></text><text transform="translate(806.852 21.6)"><tspan x="0" y="0" font-family="'Geometria'" font-size="14">№25</tspan><tspan x="0" y="16" font-family="'Geometria'" font-size="14">250</tspan><tspan x="30.016" y="16" font-family="'Geometria'" font-size="12">м²</tspan><tspan x="0" y="32" font-family="'Geometria'" font-size="14">3.6</tspan><tspan x="23.968" y="32" font-family="'Geometria'" font-size="12">млн. ₷</tspan></text><text transform="translate(339.692 40.287)"><tspan x="0" y="0" fill="#A99283" font-family="'Geometria'" font-size="14">№7</tspan><tspan x="0" y="16" fill="#A99283" font-family="'Geometria'" font-size="14">2000</tspan><tspan x="41.481" y="16" fill="#A99283" font-family="'Geometria'" font-size="12">м²</tspan><tspan x="0" y="32" fill="#A99283" font-family="'Geometria'" font-size="14">34.5</tspan><tspan x="32.213" y="32" fill="#A99283" font-family="'Geometria'" font-size="12">млн. ₷</tspan></text><text transform="translate(13.847 388.321)"><tspan x="0" y="0" fill="#A99283" font-family="'Geometria'" font-size="14">№3</tspan><tspan x="0" y="16" fill="#A99283" font-family="'Geometria'" font-size="14">2100</tspan><tspan x="36.792" y="16" fill="#A99283" font-family="'Geometria'" font-size="12">м²</tspan><tspan x="0" y="32" fill="#A99283" font-family="'Geometria'" font-size="14">34.5</tspan><tspan x="32.214" y="32" fill="#A99283" font-family="'Geometria'" font-size="12">млн. ₷</tspan></text><text transform="translate(323.341 388.321)"><tspan x="0" y="0" fill="#A99283" font-family="'Geometria'" font-size="14">№1</tspan><tspan x="0" y="16" fill="#A99283" font-family="'Geometria'" font-size="14">2000</tspan><tspan x="41.481" y="16" fill="#A99283" font-family="'Geometria'" font-size="12">м²</tspan><tspan x="0" y="32" fill="#A99283" font-family="'Geometria'" font-size="14">34.5</tspan><tspan x="32.213" y="32" fill="#A99283" font-family="'Geometria'" font-size="12">млн. ₷</tspan></text><text transform="translate(172.682 41.455)"><tspan x="0" y="0" fill="#A99283" font-family="'Geometria'" font-size="14">№6</tspan><tspan x="0" y="16" fill="#A99283" font-family="'Geometria'" font-size="14">2000</tspan><tspan x="41.481" y="16" fill="#A99283" font-family="'Geometria'" font-size="12">м²</tspan><tspan x="0" y="32" fill="#A99283" font-family="'Geometria'" font-size="14">30.5</tspan><tspan x="33.264" y="32" fill="#A99283" font-family="'Geometria'" font-size="12">млн. ₷</tspan></text><text transform="translate(13.847 41.455)"><tspan x="0" y="0" fill="#A99283" font-family="'Geometria'" font-size="14">№5</tspan><tspan x="0" y="16" fill="#A99283" font-family="'Geometria'" font-size="14">2000</tspan><tspan x="41.482" y="16" fill="#A99283" font-family="'Geometria'" font-size="12">м²</tspan><tspan x="0" y="32" fill="#A99283" font-family="'Geometria'" font-size="14">30.5</tspan><tspan x="33.264" y="32" fill="#A99283" font-family="'Geometria'" font-size="12">млн. ₷</tspan></text><text transform="translate(13.847 192.114)"><tspan x="0" y="0" fill="#A99283" font-family="'Geometria'" font-size="14">№4</tspan><tspan x="0" y="16" fill="#A99283" font-family="'Geometria'" font-size="14">1740</tspan><tspan x="35.434" y="16" fill="#A99283" font-family="'Geometria'" font-size="12">м²</tspan><tspan x="0" y="32" fill="#A99283" font-family="'Geometria'" font-size="14">29.5</tspan><tspan x="32.382" y="32" fill="#A99283" font-family="'Geometria'" font-size="12">млн. ₷</tspan></text><text transform="translate(670.208 395.329)"><tspan x="0" y="0" fill="#A99283" font-family="'Geometria'" font-size="14">№24</tspan><tspan x="0" y="16" fill="#A99283" font-family="'Geometria'" font-size="14">800</tspan><tspan x="32.55" y="16" fill="#A99283" font-family="'Geometria'" font-size="12">м²</tspan><tspan x="0" y="32" fill="#A99283" font-family="'Geometria'" font-size="14">6.8</tspan><tspan x="25.004" y="32" fill="#A99283" font-family="'Geometria'" font-size="12">млн. ₷</tspan></text><text transform="translate(546.41 391.825)"><tspan x="0" y="0" fill="#A99283" font-family="'Geometria'" font-size="14">№11</tspan><tspan x="0" y="16" fill="#A99283" font-family="'Geometria'" font-size="14">800</tspan><tspan x="28.854" y="16" fill="#A99283" font-family="'Geometria'" font-size="12">м²</tspan><tspan x="0" y="32" fill="#A99283" font-family="'Geometria'" font-size="14">7 млн.</tspan><tspan x="45.149" y="32" fill="#A99283" font-family="'Geometria'" font-size="12">₷</tspan></text><text transform="translate(472.832 391.825)"><tspan x="0" y="0" fill="#A99283" font-family="'Geometria'" font-size="14">№10</tspan><tspan x="0" y="16" fill="#A99283" font-family="'Geometria'" font-size="14">1040</tspan><tspan x="37.604" y="16" fill="#A99283" font-family="'Geometria'" font-size="12">м²</tspan><tspan x="0" y="32" fill="#A99283" font-family="'Geometria'" font-size="14">8.4</tspan><tspan x="24.892" y="32" fill="#A99283" font-family="'Geometria'" font-size="12">М₷</tspan></text><text transform="translate(670.208 331.094)"><tspan x="0" y="0" fill="#A99283" font-family="'Geometria'" font-size="14">№23</tspan><tspan x="0" y="16" fill="#A99283" font-family="'Geometria'" font-size="14">850</tspan><tspan x="30.996" y="16" fill="#A99283" font-family="'Geometria'" font-size="12">м²</tspan><tspan x="0" y="32" fill="#A99283" font-family="'Geometria'" font-size="14">7</tspan><tspan x="11.438" y="32" fill="#A99283" font-family="'Geometria'" font-size="12">млн. ₷</tspan></text><text transform="translate(670.208 263.356)"><tspan x="0" y="0" fill="#A99283" font-family="'Geometria'" font-size="14">№22</tspan><tspan x="0" y="16" fill="#A99283" font-family="'Geometria'" font-size="14">810</tspan><tspan x="27.86" y="16" fill="#A99283" font-family="'Geometria'" font-size="12">м²</tspan><tspan x="0" y="32" fill="#A99283" font-family="'Geometria'" font-size="14">6.8</tspan><tspan x="25.004" y="32" fill="#A99283" font-family="'Geometria'" font-size="12">млн. ₷</tspan></text><text transform="translate(615 391.825)"><tspan x="0" y="0" fill="#A99283" font-family="'Geometria'" font-size="14">№12</tspan><tspan x="0" y="16" fill="#A99283" font-family="'Geometria'" font-size="14">810</tspan><tspan x="27.859" y="16" fill="#A99283" font-family="'Geometria'" font-size="12">м²</tspan><tspan x="0" y="32" fill="#A99283" font-family="'Geometria'" font-size="14">6.8</tspan><tspan x="25.003" y="32" fill="#A99283" font-family="'Geometria'" font-size="12">М₷</tspan></text><text transform="translate(604.806 287.882)"><tspan x="0" y="0" fill="#A99283" font-family="'Geometria'" font-size="14">№13</tspan><tspan x="0" y="16" fill="#A99283" font-family="'Geometria'" font-size="14">830</tspan><tspan x="30.632" y="16" fill="#A99283" font-family="'Geometria'" font-size="12">м²</tspan><tspan x="0" y="32" fill="#A99283" font-family="'Geometria'" font-size="14">7.2</tspan><tspan x="22.792" y="32" fill="#A99283" font-family="'Geometria'" font-size="12">М₷</tspan></text><text transform="translate(605 146.566)"><tspan x="0" y="0" fill="#A99283" font-family="'Geometria'" font-size="14">№18</tspan><tspan x="0" y="16" fill="#A99283" font-family="'Geometria'" font-size="14">800</tspan><tspan x="32.55" y="16" fill="#A99283" font-family="'Geometria'" font-size="12">м²</tspan><tspan x="0" y="32" fill="#A99283" font-family="'Geometria'" font-size="14">6.8</tspan><tspan x="25.003" y="32" fill="#A99283" font-family="'Geometria'" font-size="12">М₷</tspan></text><text transform="translate(613 63.645)"><tspan x="0" y="0" fill="#A99283" font-family="'Geometria'" font-size="14">№17</tspan><tspan x="0" y="16" fill="#A99283" font-family="'Geometria'" font-size="14">800</tspan><tspan x="32.55" y="16" fill="#A99283" font-family="'Geometria'" font-size="12">м²</tspan><tspan x="0" y="32" fill="#A99283" font-family="'Geometria'" font-size="14">6.4</tspan><tspan x="24.836" y="32" fill="#A99283" font-family="'Geometria'" font-size="12">М₷</tspan></text><text transform="translate(670.208 146.566)"><tspan x="0" y="0" fill="#A99283" font-family="'Geometria'" font-size="14">№21</tspan><tspan x="0" y="16" fill="#A99283" font-family="'Geometria'" font-size="14">800</tspan><tspan x="32.55" y="16" fill="#A99283" font-family="'Geometria'" font-size="12">м²</tspan><tspan x="0" y="32" fill="#A99283" font-family="'Geometria'" font-size="14">6.6</tspan><tspan x="24.948" y="32" fill="#A99283" font-family="'Geometria'" font-size="12">млн. ₷</tspan></text><text transform="translate(670.208 81.163)"><tspan x="0" y="0" fill="#A99283" font-family="'Geometria'" font-size="14">№20</tspan><tspan x="0" y="16" fill="#A99283" font-family="'Geometria'" font-size="14">800</tspan><tspan x="32.55" y="16" fill="#A99283" font-family="'Geometria'" font-size="12">м²</tspan><tspan x="0" y="32" fill="#A99283" font-family="'Geometria'" font-size="14">6.4</tspan><tspan x="24.836" y="32" fill="#A99283" font-family="'Geometria'" font-size="12">млн. ₷</tspan></text><text transform="translate(670.208 19.265)"><tspan x="0" y="0" fill="#A99283" font-family="'Geometria'" font-size="14">№19</tspan><tspan x="0" y="16" fill="#A99283" font-family="'Geometria'" font-size="14">800</tspan><tspan x="32.55" y="16" fill="#A99283" font-family="'Geometria'" font-size="12">м²</tspan><tspan x="0" y="32" fill="#A99283" font-family="'Geometria'" font-size="14">6.2</tspan><tspan x="24.024" y="32" fill="#A99283" font-family="'Geometria'" font-size="12">млн. ₷</tspan></text><text transform="translate(489.183 62.477)"><tspan x="0" y="0" fill="#A99283" font-family="'Geometria'" font-size="14">№15</tspan><tspan x="0" y="16" fill="#A99283" font-family="'Geometria'" font-size="14">800</tspan><tspan x="32.549" y="16" fill="#A99283" font-family="'Geometria'" font-size="12">м²</tspan><tspan x="0" y="32" fill="#A99283" font-family="'Geometria'" font-size="14">6.8</tspan><tspan x="25.003" y="32" fill="#A99283" font-family="'Geometria'" font-size="12">М₷</tspan></text><text transform="translate(489.183 146.566)"><tspan x="0" y="0" fill="#A99283" font-family="'Geometria'" font-size="14">№14</tspan><tspan x="0" y="16" fill="#A99283" font-family="'Geometria'" font-size="14">800</tspan><tspan x="32.549" y="16" fill="#A99283" font-family="'Geometria'" font-size="12">м²</tspan><tspan x="0" y="32" fill="#A99283" font-family="'Geometria'" font-size="14">7</tspan><tspan x="11.438" y="32" fill="#A99283" font-family="'Geometria'" font-size="12">М₷</tspan></text><text transform="translate(489.183 287.882)"><tspan x="0" y="0" fill="#A99283" font-family="'Geometria'" font-size="14">№9</tspan><tspan x="0" y="16" fill="#A99283" font-family="'Geometria'" font-size="14">900</tspan><tspan x="32.494" y="16" fill="#A99283" font-family="'Geometria'" font-size="12">м²</tspan><tspan x="0" y="32" fill="#A99283" font-family="'Geometria'" font-size="14">7.4</tspan><tspan x="23.604" y="32" fill="#A99283" font-family="'Geometria'" font-size="12">М₷</tspan></text><text transform="translate(431.956 287.882)"><tspan x="0" y="0" fill="#A99283" font-family="'Geometria'" font-size="14">№8</tspan><tspan x="0" y="16" fill="#A99283" font-family="'Geometria'" font-size="14">900</tspan><tspan x="32.493" y="16" fill="#A99283" font-family="'Geometria'" font-size="12">м²</tspan><tspan x="0" y="32" fill="#A99283" font-family="'Geometria'" font-size="14">7.9</tspan><tspan x="23.715" y="32" fill="#A99283" font-family="'Geometria'" font-size="12">М₷</tspan></text><text transform="translate(545.242 33.279)"><tspan x="0" y="0" fill="#A99283" font-family="'Geometria'" font-size="14">№16</tspan><tspan x="0" y="16" fill="#A99283" font-family="'Geometria'" font-size="14">800</tspan><tspan x="32.549" y="16" fill="#A99283" font-family="'Geometria'" font-size="12">м²</tspan><tspan x="0" y="32" fill="#A99283" font-family="'Geometria'" font-size="14">6.6</tspan><tspan x="24.947" y="32" fill="#A99283" font-family="'Geometria'" font-size="12">М₷</tspan></text><path fill="#fff" d="M830 251h23v23h-23z"/><text transform="translate(835.752 268)" fill="#995426" font-family="'Geometria-ExtraBold'" font-size="16" letter-spacing="2">A</text><path fill="#fff" d="M855 251h23v23h-23z"/><text transform="translate(860.304 268)" fill="#995426" font-family="'Geometria-ExtraBold'" font-size="16" letter-spacing="2">B</text><path opacity=".3" fill="#fff" d="M830 276h23v23h-23z"/><text transform="translate(835.776 293)" fill="#995426" font-family="'Geometria-ExtraBold'" font-size="16" letter-spacing="2">D</text><path fill="#fff" d="M855 276h23v23h-23z"/><text transform="translate(860.624 293)" fill="#995426" font-family="'Geometria-ExtraBold'" font-size="16" letter-spacing="2">C</text></svg>